<svg width="1338" height="1599" viewBox="0 0 1338 1599" fill="none" xmlns="http://www.w3.org/2000/svg">
<path d="M-186.634 356.326C-616.876 574.201 -368.218 1015.12 -190.109 1208.34C345.779 1658.7 510.671 1108.89 279.589 748.139C48.5069 387.392 849.412 550.383 810.01 18.2851C764.322 -598.703 351.169 83.9829 -186.634 356.326Z" stroke="white" stroke-width="3"/>
<path opacity="0.95875" d="M-170.399 372.471C-607.983 575.198 -374.865 1024.52 -203.607 1223.85C316.237 1692.63 500.217 1148.91 281.866 780.316C63.5142 411.724 858.243 602.567 837.435 69.4186C813.307 -548.788 376.581 119.063 -170.399 372.471Z" stroke="white" stroke-width="3"/>
<path opacity="0.87625" d="M-139.671 406.412C-590.33 578.12 -389.123 1042.61 -232.187 1253.4C253.69 1757.3 475.151 1227.74 283.043 844.812C90.9345 461.886 870.415 707.701 886.848 174.4C905.903 -443.984 423.653 191.776 -139.671 406.412Z" stroke="white" stroke-width="3"/>
<path opacity="0.835" d="M-125.214 424.166C-581.591 580.042 -396.717 1051.27 -247.233 1267.4C220.762 1787.96 460.57 1266.45 281.942 877.051C103.315 487.654 873.742 760.523 908.777 228.12C949.402 -389.222 445.258 229.32 -125.214 424.166Z" stroke="white" stroke-width="3"/>
<path opacity="0.79375" d="M-111.385 442.413C-572.924 582.267 -404.609 1059.66 -262.758 1280.88C186.785 1817.45 444.646 1304.63 279.718 909.232C114.789 513.839 875.223 813.429 928.818 282.573C990.963 -332.976 465.539 267.596 -111.385 442.413Z" stroke="white" stroke-width="3"/>
<path opacity="0.7525" d="M-98.2013 461.132C-564.34 584.793 -412.788 1067.77 -278.745 1293.81C151.798 1845.74 427.4 1342.22 276.371 941.316C125.342 540.407 874.857 866.354 946.946 337.692C1030.54 -275.313 484.472 306.556 -98.2013 461.132Z" stroke="white" stroke-width="3"/>
<path opacity="0.71125" d="M-85.6791 480.3C-555.85 587.617 -421.246 1075.59 -295.172 1306.16C115.846 1872.79 408.853 1379.2 271.907 973.263C134.961 567.328 872.645 919.234 963.14 393.41C1068.07 -216.304 502.034 346.153 -85.6791 480.3Z" stroke="white" stroke-width="3"/>
<path opacity="0.67" d="M-73.8335 499.893C-547.463 590.736 -429.971 1083.11 -312.021 1317.94C78.9718 1898.57 389.026 1415.5 266.331 1005.04C143.635 594.569 868.588 972.005 977.379 449.659C1103.53 -156.022 518.204 386.338 -73.8335 499.893Z" stroke="white" stroke-width="3"/>
<path opacity="0.62875" d="M-62.6789 519.888C-539.19 594.147 -438.954 1090.32 -329.271 1329.13C41.2203 1923.04 367.944 1451.09 259.649 1036.59C151.353 622.096 862.692 1024.6 989.646 506.372C1136.85 -94.5373 532.961 427.065 -62.6789 519.888Z" stroke="white" stroke-width="3"/>
<path opacity="0.5875" d="M-52.2288 540.26C-531.042 597.843 -448.182 1097.21 -346.901 1339.7C2.63762 1946.19 345.633 1485.93 251.87 1067.9C158.106 649.875 854.964 1076.96 999.927 563.477C1168.02 -31.9282 546.287 468.28 -52.2288 540.26Z" stroke="white" stroke-width="3"/>
<path opacity="0.54625" d="M-42.498 560.984C-523.029 601.822 -457.648 1103.78 -364.891 1349.66C-36.7312 1967.97 322.118 1519.96 243.001 1098.92C163.883 677.873 845.412 1129.02 1008.21 620.907C1196.97 31.7302 558.165 509.936 -42.498 560.984Z" stroke="white" stroke-width="3"/>
<path opacity="0.505" d="M-33.4945 582.035C-515.158 606.078 -467.335 1110.01 -383.215 1358.97C-76.8342 1988.36 297.432 1553.15 233.057 1129.6C168.682 706.055 834.05 1180.71 1014.48 678.59C1223.69 96.3604 568.585 551.981 -33.4945 582.035Z" stroke="white" stroke-width="3"/>
<path opacity="0.46375" d="M-25.2292 603.387C-507.438 610.606 -477.231 1115.9 -401.852 1367.65C-117.623 2007.35 271.604 1585.46 222.05 1159.92C172.496 734.388 820.893 1231.98 1018.74 736.458C1248.14 161.884 577.532 594.364 -25.2292 603.387Z" stroke="white" stroke-width="3"/>
<path opacity="0.4225" d="M-17.718 625.015C-499.885 615.4 -487.331 1121.44 -420.783 1375.67C-159.053 2024.9 244.661 1616.85 209.988 1189.84C175.314 762.836 805.952 1282.75 1020.97 794.438C1270.29 228.22 584.991 637.033 -17.718 625.015Z" stroke="white" stroke-width="3"/>
<path opacity="0.38125" d="M-10.9622 646.891C-492.5 620.455 -497.614 1126.63 -439.979 1383.02C-201.066 2040.99 216.642 1647.28 196.892 1219.32C177.143 791.365 789.251 1332.97 1021.18 852.461C1290.1 295.29 590.96 679.937 -10.9622 646.891Z" stroke="white" stroke-width="3"/>
<path opacity="0.34" d="M-4.97802 668.991C-485.3 625.765 -508.076 1131.45 -459.424 1389.7C-243.619 2055.6 187.575 1676.71 182.772 1248.33C177.97 819.941 770.804 1382.58 1019.36 910.456C1307.57 363.009 595.424 723.022 -4.97802 668.991Z" stroke="white" stroke-width="3"/>
<path opacity="0.29875" d="M0.233255 691.285C-478.288 631.323 -518.698 1135.91 -479.089 1395.69C-286.655 2068.72 157.5 1705.11 167.651 1276.82C177.802 848.529 750.639 1431.51 1015.52 968.352C1322.66 431.298 598.384 766.238 0.233255 691.285Z" stroke="white" stroke-width="3"/>
<path opacity="0.2575" d="M4.66332 713.748C-471.473 637.122 -529.469 1139.99 -498.95 1401C-330.122 2080.33 126.452 1732.45 151.544 1304.77C176.636 877.093 728.778 1479.72 1009.66 1026.08C1335.35 500.071 599.834 809.53 4.66332 713.748Z" stroke="white" stroke-width="3"/>
<path opacity="0.21625" d="M8.30867 736.352C-464.864 643.156 -540.374 1143.69 -518.983 1405.61C-373.966 2090.42 94.4709 1758.68 134.474 1332.14C174.476 905.599 705.25 1527.12 1001.79 1083.57C1345.65 569.245 599.774 852.847 8.30867 736.352Z" stroke="white" stroke-width="3"/>
<path opacity="0.175" d="M11.159 759.069C-458.473 649.416 -551.405 1147.01 -539.168 1409.52C-418.139 2098.97 61.5901 1783.78 116.454 1358.9C171.319 934.012 680.079 1573.68 991.921 1140.74C1353.51 638.737 598.199 896.135 11.159 759.069Z" stroke="white" stroke-width="3"/>
<path opacity="0.13375" d="M13.2168 781.872C-452.302 655.896 -562.544 1149.94 -559.475 1412.72C-462.581 2105.98 27.8551 1807.72 97.5142 1385.01C167.173 962.298 653.299 1619.33 980.061 1197.54C1358.95 708.46 595.115 939.342 13.2168 781.872Z" stroke="white" stroke-width="3"/>
<path opacity="0.0925" d="M14.4775 804.733C-446.361 662.587 -573.778 1152.49 -579.882 1415.21C-507.241 2111.43 -6.69469 1830.47 77.6744 1410.44C162.043 990.422 624.943 1664.02 966.226 1253.89C1361.96 778.331 590.526 982.414 14.4775 804.733Z" stroke="white" stroke-width="3"/>
<path opacity="0.05125" d="M14.9396 827.623C-440.658 669.482 -585.094 1154.64 -600.363 1416.98C-552.065 2115.31 -42.0173 1851.99 56.959 1435.17C155.935 1018.35 595.045 1707.7 950.433 1309.73C1362.52 848.265 584.436 1025.3 14.9396 827.623Z" stroke="white" stroke-width="3"/>
<path opacity="0.01" d="M14.6025 850.516C-435.198 676.57 -596.478 1156.39 -620.893 1418.04C-596.996 2117.63 -78.0697 1872.27 35.3931 1459.16C148.856 1046.05 563.64 1750.3 932.701 1364.97C1360.64 918.174 576.853 1067.95 14.6025 850.516Z" stroke="white" stroke-width="3"/>
</svg>
