<svg width="148" height="31" viewBox="0 0 148 31" fill="none" xmlns="http://www.w3.org/2000/svg">
<path d="M20.4128 0.359768C20.228 0.569632 18.9647 3.5677 17.5474 7.04546C16.1301 10.4932 14.836 13.4913 14.6511 13.6712C14.4662 13.8511 11.2619 14.6905 7.5645 15.56C3.86714 16.3994 0.631953 17.2389 0.385463 17.4188C-0.13833 17.8685 -0.13833 18.4381 0.447085 18.8878C0.816821 19.1876 2.1109 18.9778 7.07152 17.8385C10.4608 17.029 13.3262 16.4594 13.4187 16.5493C13.5111 16.6393 12.5868 19.1876 11.3851 22.1857C8.98182 28.1818 8.85858 28.9613 10.3375 30.3104C10.8921 30.8201 11.4467 31 12.3094 31C14.7435 30.94 20.0123 27.882 25.9897 23.0851C27.6535 21.736 29.0708 20.7166 29.1632 20.8066C29.2557 20.8665 30.0568 22.6654 30.9195 24.794L32.5525 28.6315L33.6617 28.7215C34.2779 28.7814 34.8017 28.7515 34.8017 28.6615C34.8017 28.5416 33.9082 26.323 32.8298 23.7147L30.8579 18.9478L32.3984 17.5087C34.1855 15.7698 35.2331 13.881 34.9558 12.8017C34.8325 12.382 34.4012 11.7224 33.9698 11.3327C33.292 10.7031 30.6881 10.6431 28.0383 10.6731H27.4378L25.2194 5.33656L23.0318 0H21.861C21.2139 0 20.5669 0.179884 20.4128 0.359768ZM23.7096 7.31528C24.5724 9.44391 25.2194 11.2427 25.127 11.3327C24.8805 11.5426 17.7322 13.1915 17.609 13.0416C17.5166 12.9816 18.256 11.0029 19.242 8.63443C20.1971 6.26596 21.1215 4.01741 21.2755 3.62766C21.4604 3.20793 21.6761 2.99807 21.861 3.17795C21.9842 3.32785 22.8161 5.18666 23.7096 7.31528ZM32.6141 13.0116C33.1687 13.6712 30.4881 16.9391 29.9027 16.3095C29.7487 16.1596 29.4097 15.3801 29.1016 14.6006C28.6086 13.3414 28.6086 13.1015 28.9784 12.8617C29.6562 12.442 32.2136 12.5319 32.6141 13.0116ZM27.3146 16.0397C28.3005 18.3482 28.3005 18.4381 27.7767 18.8878C20.9366 24.3143 17.7939 26.5329 14.9284 27.972C12.7408 29.0513 12.1554 29.1712 11.6932 28.6315C11.3851 28.2718 11.7548 27.1025 13.85 21.9458L16.3765 15.6799L20.875 14.6006C23.3707 14.0309 25.5891 13.5513 25.8356 13.5812C26.0821 13.6112 26.7292 14.7205 27.3146 16.0397Z" fill="white"/>
<path d="M50.7938 6.66094C50.6387 7.0702 49.0566 10.911 47.2573 15.1925L44 23L45.396 22.9056L46.792 22.8111L47.6606 20.6074L48.5292 18.4037L52.531 18.3092L56.5328 18.2148L57.4325 20.5129L58.3631 22.8111L59.6971 22.9056C60.4106 22.9685 61 22.8741 61 22.7481C61 22.5907 59.4799 18.8129 57.6186 14.311L54.2372 6.12575L52.6551 6.0313C51.2591 5.93686 51.042 6.0313 50.7938 6.66094ZM54.1442 12.2962C54.8887 14.1851 55.4161 15.8221 55.323 15.9166C55.2609 16.011 53.927 16.011 52.3759 15.9796L49.5839 15.8851L51.042 12.3591C51.8175 10.4073 52.531 8.8017 52.6241 8.8017C52.7172 8.8017 53.3996 10.3758 54.1442 12.2962Z" fill="white"/>
<path d="M66 14.5V23H71.5H77V21.7407V20.4815H72.7571H68.5143V13.2407V6H67.2571H66V14.5Z" fill="white"/>
<path d="M82 14.5V23H87.5H93V21.7407V20.4815H88.7571H84.5143V13.2407V6H83.2571H82V14.5Z" fill="white"/>
<path d="M97 14.5V23L102.46 22.8745C108.505 22.7804 109.122 22.5923 110.325 20.6476C111.657 18.5775 110.91 14.8137 109.025 13.8413C108.342 13.4963 108.342 13.4963 109.187 12.5554C110.13 11.4262 110.292 9.35609 109.512 7.91328C108.667 6.31365 107.367 6 101.907 6H97V14.5ZM106.587 8.9797C107.562 9.8893 107.627 10.9871 106.75 11.8967C106.132 12.524 105.742 12.5867 102.85 12.5867H99.6V10.3911V8.19557H102.687C105.547 8.19557 105.872 8.2583 106.587 8.9797ZM107.465 15.6605C108.505 16.6642 108.505 18.8598 107.465 19.8635C106.815 20.5221 106.36 20.5849 103.175 20.679L99.6 20.8044V18.0129C99.6 16.4446 99.6975 15.0959 99.86 14.9705C99.99 14.845 101.582 14.7823 103.402 14.845C106.36 14.9391 106.815 15.0332 107.465 15.6605Z" fill="white"/>
<path d="M116 11.2651C116 14.1454 116.159 17.2115 116.35 18.1097C117.083 21.4236 120.076 23.2509 124.248 22.9721C126.924 22.7863 128.803 21.8572 129.917 20.1848C130.809 18.9149 130.809 18.884 130.904 12.442L131 6H129.726H128.484L128.357 11.9464C128.261 17.2115 128.197 18.0168 127.656 18.7911C126.796 20.0609 125.522 20.5564 123.325 20.5564C121.573 20.5564 121.287 20.4635 120.204 19.5034L119.025 18.4504L118.93 12.2252L118.834 6H117.401H116V11.2651Z" fill="white"/>
<path d="M138.313 11.7296C140.714 17.6167 140.862 18.2148 140.358 19.1907C140.21 19.5056 139.825 20.4815 139.498 21.3944L138.876 23H140.151H141.426L144.628 14.8778C146.407 10.4389 147.919 6.59815 147.978 6.37778C148.096 6.12593 147.741 6 146.851 6H145.547L143.946 10.0926C143.086 12.3593 142.256 14.1852 142.137 14.1852C142.019 14.1852 141.188 12.3278 140.329 10.0926L138.757 6H137.364H136L138.313 11.7296Z" fill="white"/>
</svg>
