<svg width="124" height="32" viewBox="0 0 124 32" fill="none" xmlns="http://www.w3.org/2000/svg">
<path d="M8.9978 15.2463C4.13923 23.6345 0.121921 30.5596 0.0792489 30.6389L0 30.7852H3.16386H6.33382L7.57132 28.6515L8.81492 26.5179L14.911 26.5362L21.001 26.5484L21.318 28.6393C21.4887 29.7915 21.6472 30.7425 21.6593 30.7608C21.6776 30.773 23.0858 30.7791 24.7927 30.773L27.9017 30.7547L25.823 15.3804L23.7503 -7.62939e-06H20.7937H17.8371L8.9978 15.2463ZM19.544 15.417C19.9951 18.5869 20.3548 21.1838 20.3487 21.196C20.3365 21.2082 18.4223 21.2082 16.0936 21.2021L11.8569 21.1838L15.2768 15.3865C17.1543 12.1982 18.6967 9.60131 18.7027 9.62569C18.7149 9.64398 19.0929 12.2531 19.544 15.417Z" fill="white"/>
<path d="M46.6093 7.38843C44.3415 7.61399 41.9153 8.48573 39.995 9.772C37.203 11.6313 35.0145 14.6184 34.0209 17.9224C33.9172 18.276 33.2162 21.3119 32.4725 24.6708L31.1191 30.7852H34.0818H37.0506L38.3735 24.7988C39.105 21.513 39.7817 18.5808 39.8853 18.2943C40.5437 16.4045 41.8604 14.9049 43.6222 14.0332C44.628 13.5394 45.4388 13.3443 46.7617 13.2955L47.7614 13.259L48.4198 10.3024C48.7795 8.67471 49.0721 7.33966 49.0782 7.32747C49.0843 7.2909 47.0969 7.33966 46.6093 7.38843Z" fill="white"/>
<path d="M114.521 7.35694C112.235 7.55811 110.126 8.24087 108.516 9.31378C107.791 9.79537 106.614 10.978 106.163 11.673C105.218 13.1299 104.73 15.166 104.98 16.6352C105.133 17.5496 105.87 18.7078 106.73 19.4028C107.62 20.116 108.187 20.4086 110.284 21.2255C112.655 22.1521 113.509 22.6093 113.771 23.1031C114.009 23.5603 113.838 24.2979 113.387 24.7368C112.332 25.7671 109.382 25.6086 106.773 24.3833C106.047 24.048 105.395 23.6335 105.011 23.2799C104.834 23.1153 104.712 23.0421 104.676 23.0787C104.56 23.1945 100.957 27.8885 100.957 27.9251C100.957 28.047 101.743 28.8639 102.207 29.2114C103.566 30.2477 105.523 30.9548 107.577 31.156C108.498 31.2474 110.583 31.1926 111.442 31.0585C113.832 30.6927 115.953 29.8332 117.508 28.62C118.16 28.108 119.026 27.2057 119.422 26.6144C120.538 24.9624 121.037 22.7068 120.611 21.2743C120.282 20.1709 119.44 19.1163 118.306 18.3786C117.605 17.9214 117.124 17.6959 115.545 17.068C112.265 15.7573 111.637 15.3306 111.771 14.4832C111.93 13.5201 112.96 13.0385 114.704 13.1238C116.307 13.197 118.252 13.7944 119.16 14.4832C119.324 14.6113 119.495 14.7637 119.538 14.8246C119.581 14.8856 119.654 14.9344 119.69 14.9283C119.776 14.9222 124 10.5086 124 10.4294C124 10.2892 123.013 9.37474 122.537 9.06384C121.056 8.10676 119.446 7.56421 117.514 7.38132C116.898 7.32036 115.1 7.30817 114.521 7.35694Z" fill="white"/>
<path d="M63.5272 7.77716C62.0154 7.95395 61.0339 8.14293 60.0524 8.44773C58.6321 8.88665 57.1812 9.61818 55.9803 10.5082C55.2243 11.0629 53.9686 12.3065 53.2309 13.2271C51.4265 15.4765 50.5852 17.4333 49.9817 20.7923C49.7927 21.8225 49.7806 23.8952 49.9573 24.6877C50.3292 26.419 51.1766 28.1319 52.1214 29.0707C53.5906 30.546 55.4926 31.3263 58.248 31.5823C59.2112 31.6738 60.9668 31.625 61.7289 31.4848C64.3685 31.0093 66.7886 29.8876 68.9832 28.1259C69.6842 27.565 70.367 26.9432 70.3426 26.8823C70.3304 26.8457 66.7703 23.9318 66.2278 23.5111C66.1729 23.4746 66.0449 23.5477 65.801 23.7733C64.9415 24.5414 63.8381 25.1327 62.6859 25.4375C62.0215 25.6082 61.8995 25.6265 60.9059 25.6265C59.6379 25.6326 59.3026 25.5655 58.3577 25.1022C57.8761 24.8645 57.6262 24.6999 57.2543 24.3463C56.663 23.7915 56.3887 23.3892 56.1692 22.7613C56.0168 22.3163 56.0046 22.2066 55.9986 21.3348C55.9986 20.3107 56.029 20.1217 56.3765 19.061C56.7849 17.7991 57.5591 16.5067 58.3212 15.7874C59.2965 14.8791 60.912 14.0622 62.2592 13.8062C62.8566 13.6904 64.0149 13.6782 64.5574 13.7757C66.0449 14.0439 66.9776 14.6535 67.831 15.8971C67.8371 15.9093 69.1356 15.1473 70.7206 14.2024L73.5918 12.4894L73.4882 12.3248C72.781 11.2214 71.7142 10.0876 70.812 9.47187C69.7147 8.72206 68.4345 8.1917 67.0934 7.91737C66.5448 7.80764 66.179 7.78326 65.0817 7.77107C64.3441 7.75888 63.643 7.76497 63.5272 7.77716Z" fill="white"/>
<path d="M79.7729 7.87364C79.3705 9.6354 77.2735 19.2001 77.1821 19.7C76.8529 21.5349 76.7066 23.5223 76.8102 24.6135C77.0601 27.1677 77.9989 28.9965 79.6205 30.0938C80.0411 30.3803 80.8946 30.8193 81.2359 30.929C81.9736 31.1606 82.6076 31.2216 84.5095 31.2521C87.3015 31.3008 88.4293 31.1728 89.679 30.679C91.264 30.0512 92.3491 29.3684 93.4281 28.3321C94.2998 27.4969 94.7875 26.9178 95.4337 25.9424C96.2871 24.6622 96.8358 23.4735 97.5186 21.4252C97.9575 20.0902 97.9392 20.1511 99.4022 13.5918L100.701 7.77001L97.738 7.75172C96.1104 7.74562 94.7692 7.75172 94.7509 7.77001C94.7326 7.7883 94.1352 10.434 93.422 13.6527C91.9102 20.4864 91.6785 21.3338 91.0384 22.3945C90.3008 23.6137 89.4656 24.4306 88.4903 24.8756C87.7465 25.2109 86.4176 25.3206 85.2959 25.1438C84.6071 25.028 84.2474 24.8512 83.8329 24.4123C83.4793 24.0343 83.2659 23.6381 83.0831 22.998C82.8941 22.3457 82.8941 21.0777 83.0891 20.0231C83.1989 19.4074 85.6617 8.16625 85.7531 7.84316C85.7836 7.74562 85.6129 7.73953 82.7965 7.73953H79.8034L79.7729 7.87364Z" fill="white"/>
</svg>
