<svg width="105" height="20" viewBox="0 0 105 20" fill="none" xmlns="http://www.w3.org/2000/svg">
<path d="M97.4034 19.727H104.26C104.456 19.7268 104.644 19.6494 104.783 19.5118C104.921 19.3742 104.999 19.1876 105 18.9928V16.8983C105 16.8017 104.982 16.706 104.944 16.6168C104.907 16.5275 104.852 16.4465 104.783 16.3785C104.715 16.31 104.633 16.2558 104.544 16.219C104.454 16.1822 104.357 16.1636 104.26 16.1642H98.52C94.364 16.1642 93.5362 14.8197 93.5362 10.3177C93.5362 7.28501 93.8128 3.69887 98.52 3.69887H104.261C104.408 3.69932 104.551 3.65639 104.672 3.57555C104.794 3.49472 104.888 3.37967 104.944 3.24513C104.981 3.15597 105 3.06033 105 2.96376V1.00811C105 0.911508 104.981 0.815798 104.944 0.726545C104.907 0.637292 104.852 0.556277 104.783 0.488214C104.715 0.419988 104.634 0.365924 104.544 0.329143C104.454 0.292362 104.358 0.273593 104.261 0.273922H97.4034C90.36 0.273922 88.979 6.02721 88.979 10.3177C88.979 16.0272 92.0166 19.7261 97.4034 19.7261V19.727ZM81.5203 18.9938C81.521 19.1884 81.5994 19.3748 81.7383 19.5121C81.8771 19.6494 82.0651 19.7263 82.2609 19.7261H85.2009C85.3967 19.7263 85.5845 19.6493 85.7232 19.512C85.8619 19.3747 85.9401 19.1883 85.9406 18.9938V1.00624C85.9399 0.811601 85.8615 0.625198 85.7226 0.487914C85.5838 0.35063 85.3958 0.273673 85.2 0.273922H82.2609C82.0651 0.273673 81.8771 0.35063 81.7383 0.487914C81.5994 0.625198 81.521 0.811601 81.5203 1.00624V18.9938ZM56.5228 18.9938C56.5228 19.1878 56.6003 19.3739 56.7383 19.5113C56.8763 19.6486 57.0635 19.7258 57.2587 19.7261H59.9053C60.0023 19.726 60.0984 19.7068 60.188 19.6697C60.2776 19.6327 60.3589 19.5784 60.4274 19.51C60.4958 19.4416 60.55 19.3605 60.5869 19.2713C60.6238 19.1821 60.6425 19.0865 60.6422 18.99V5.39365C60.6422 4.98649 60.7425 4.97158 60.8643 5.35265L65.2378 19.0292C65.311 19.2264 65.4413 19.3978 65.6123 19.5216C65.7833 19.6455 65.9873 19.7163 66.1987 19.7251H68.8519C69.0633 19.7162 69.2675 19.6454 69.4386 19.5216C69.6097 19.3977 69.7402 19.2264 69.8137 19.0292L74.1872 5.35265C74.309 4.96879 74.4094 4.98556 74.4094 5.39365V18.9882C74.4092 19.0849 74.4283 19.1807 74.4655 19.2701C74.5026 19.3595 74.5572 19.4408 74.6259 19.5092C74.6947 19.5777 74.7764 19.632 74.8663 19.669C74.9563 19.7061 75.0526 19.7251 75.15 19.7251H77.6044C77.8002 19.7254 77.9882 19.6484 78.127 19.5112C78.2658 19.3739 78.3442 19.1875 78.345 18.9928V1.00624C78.3449 0.909793 78.3256 0.814315 78.2883 0.725278C78.251 0.636241 78.1964 0.555393 78.1276 0.487367C78.0588 0.41934 77.9771 0.365471 77.8874 0.328844C77.7976 0.292218 77.7014 0.273554 77.6044 0.273922H72.9469C72.7339 0.283383 72.5283 0.354589 72.3556 0.47876C72.1828 0.602931 72.0504 0.774636 71.9747 0.972701L67.665 13.9588C67.5375 14.3445 67.3275 14.3436 67.1981 13.9644L62.804 0.967111C62.7264 0.770068 62.5928 0.599675 62.4196 0.476623C62.2463 0.353572 62.0408 0.283154 61.8281 0.273922H57.2625C57.0667 0.273919 56.8789 0.350955 56.7401 0.488186C56.6013 0.625416 56.5228 0.811677 56.5219 1.00624L56.5228 18.9938ZM44.0915 16.7129C48.5118 16.7129 49.4784 13.9728 49.4784 10.0559V10C49.4784 5.89024 48.374 3.28706 44.1562 3.28706C39.9393 3.28706 39.12 6.57598 39.12 9.9441V10C39.12 12.7392 39.6731 16.7129 44.0925 16.7129H44.0915ZM44.1 20C36.9337 20 34.5618 15.594 34.5618 10.0214C34.5618 4.36225 36.7725 0 44.1562 0C51.5409 0 53.8978 3.72962 53.8978 9.90962C53.8978 16.5229 51.2662 20 44.1 20ZM24.3506 19.7261C24.2532 19.7266 24.1567 19.7079 24.0666 19.6711C23.9765 19.6342 23.8947 19.58 23.8258 19.5116C23.7569 19.4431 23.7024 19.3618 23.6653 19.2723C23.6283 19.1828 23.6095 19.0868 23.61 18.99V4.51784C23.61 4.32343 23.5326 4.13692 23.3947 3.99902C23.2568 3.86112 23.0696 3.78302 22.874 3.78179H18.0346C17.9376 3.78167 17.8415 3.76252 17.7519 3.72545C17.6623 3.68837 17.581 3.63409 17.5125 3.56571C17.4441 3.49734 17.3899 3.41622 17.353 3.32699C17.3162 3.23777 17.2974 3.1422 17.2978 3.04575V1.00904C17.2974 0.912745 17.3161 0.817324 17.3529 0.72822C17.3896 0.639117 17.4436 0.558078 17.5119 0.489729C17.5801 0.421381 17.6613 0.367062 17.7506 0.329874C17.84 0.292685 17.9359 0.273356 18.0328 0.27299H33.4134C33.5103 0.273356 33.6062 0.292685 33.6955 0.329874C33.7849 0.367062 33.866 0.421381 33.9343 0.489729C34.0025 0.558078 34.0566 0.639117 34.0933 0.72822C34.1301 0.817324 34.1488 0.912745 34.1484 1.00904V3.04668C34.1484 3.24157 34.0706 3.4285 33.9321 3.56648C33.7937 3.70447 33.6058 3.78223 33.4097 3.78273H28.7128C28.6155 3.78248 28.5192 3.80136 28.4293 3.83829C28.3395 3.87521 28.2579 3.92945 28.1892 3.99787C28.1205 4.06629 28.0661 4.14755 28.0292 4.23695C27.9923 4.32635 27.9735 4.42213 27.974 4.51877V18.9891C27.9741 19.0858 27.9551 19.1816 27.9179 19.2711C27.8808 19.3605 27.8262 19.4417 27.7574 19.5102C27.6886 19.5786 27.607 19.6329 27.517 19.67C27.4271 19.707 27.3307 19.7261 27.2334 19.7261H24.3506ZM0.502456 19.7261C0.0955805 19.7261 -0.104107 19.4205 0.0543305 19.0515L7.81964 0.948477C7.91435 0.755024 8.05956 0.590379 8.24014 0.471726C8.42071 0.353073 8.63001 0.284761 8.84621 0.273922H11.6625C12.0693 0.273922 12.5306 0.579521 12.689 0.948477L20.4543 19.0515C20.6137 19.4242 20.4168 19.7261 20.0025 19.7261H16.9331C16.7176 19.7156 16.5092 19.6461 16.331 19.5253C16.1528 19.4044 16.0117 19.2369 15.9234 19.0413L10.3875 4.93152C10.2393 4.55325 10.0012 4.55604 9.85683 4.93152L4.46527 19.0413C4.37914 19.2364 4.24002 19.4039 4.0635 19.5248C3.88698 19.6458 3.68004 19.7155 3.46589 19.7261H0.502456Z" fill="white"/>
</svg>
