<svg width="156" height="16" viewBox="0 0 156 16" fill="none" xmlns="http://www.w3.org/2000/svg">
<path d="M38.0908 0.110966C37.1204 0.318373 36.1871 0.836892 35.4833 1.55541C34.8908 2.15541 34.4982 2.79245 34.2315 3.59245C34.0389 4.15541 34.0315 4.26652 34.0019 6.05171L33.9722 7.92578H33.1648H32.3574V8.85171V9.77763H33.1722H33.9871V12.8517V15.9258H34.9871H35.9871V12.8517V9.77763H37.8759H39.7648V8.85171V7.92578H37.8389H35.913V6.57023C35.913 4.99245 35.9796 4.51837 36.2759 3.88874C36.7426 2.88134 37.7648 2.21467 39.1204 2.03689L39.4685 1.99245V0.992447V-0.000144958L39.0093 0.00726223C38.75 0.00726223 38.3426 0.0591135 38.0908 0.110966Z" fill="white"/>
<path d="M51.4231 0.148003C49.6157 0.622077 48.312 1.80726 47.7046 3.548C47.5194 4.08874 47.512 4.17763 47.4823 6.01467L47.4527 7.92578H46.6453H45.8379V8.85171V9.77763H46.6527H47.4675V12.8517V15.9258H48.4305H49.3934V12.8517V9.77763H51.2823H53.1712V8.85171V7.92578H51.2823H49.3934V6.42208C49.3934 4.73319 49.4675 4.29615 49.8601 3.63689C50.3934 2.748 51.2675 2.23689 52.6009 2.03689L52.8749 1.99245V0.999855V-0.000144958L52.4157 0.00726223C52.1564 0.00726223 51.712 0.0665216 51.4231 0.148003Z" fill="white"/>
<path d="M100.172 0.118373C99.8908 0.177632 99.3056 0.399855 98.8759 0.607262C98.2093 0.92578 98.0167 1.06652 97.5056 1.58504C97.0389 2.05171 96.8389 2.32578 96.6019 2.81467C96.0982 3.8443 96.0463 4.10356 96.0093 6.12578L95.9722 7.92578H95.1648H94.3574V8.85171V9.77763H95.1722H95.9871V12.8517V15.9258H96.9871H97.9871V12.8517V9.77763H99.8759H101.765V8.85171V7.92578H99.8685H97.9796L98.0019 6.19985L98.0241 4.47393L98.3056 3.91097C98.7352 3.02948 99.4759 2.4443 100.483 2.18504C100.713 2.12578 101.031 2.07393 101.187 2.07393H101.469V1.03689V-0.000144958L101.083 0.00726223C100.869 0.00726223 100.461 0.0591135 100.172 0.118373Z" fill="white"/>
<path d="M153.061 0.251963C152.683 0.414926 152.342 0.755667 152.164 1.14826C151.594 2.37048 152.513 3.70381 153.861 3.61493C154.92 3.54085 155.542 2.89641 155.542 1.87419C155.542 1.1853 155.268 0.689 154.705 0.370482C154.379 0.185297 154.246 0.148259 153.801 0.148259C153.52 0.155667 153.187 0.200111 153.061 0.251963ZM154.461 0.733445C154.972 1.05196 155.209 1.94085 154.927 2.48159C154.298 3.70381 152.505 3.23715 152.505 1.84456C152.505 1.52604 152.698 1.07419 152.927 0.874185C153.335 0.503815 153.987 0.444556 154.461 0.733445Z" fill="white"/>
<path d="M153.157 1.00705C153.12 1.03668 153.098 1.4589 153.098 1.94038V2.81445H153.32C153.535 2.81445 153.542 2.79964 153.542 2.47371C153.542 2.14779 153.55 2.14038 153.75 2.1626C153.912 2.17742 153.964 2.24408 154.046 2.49593C154.142 2.79223 154.172 2.81445 154.401 2.81445C154.638 2.81445 154.653 2.79964 154.609 2.60705C154.587 2.49593 154.512 2.28853 154.438 2.14779C154.327 1.90334 154.327 1.88112 154.446 1.75519C154.616 1.59223 154.616 1.39223 154.438 1.17742C154.32 1.02927 154.216 0.999638 153.757 0.977416C153.453 0.962601 153.187 0.977416 153.157 1.00705ZM154.038 1.45149C154.09 1.59223 153.883 1.77742 153.675 1.77742C153.579 1.77742 153.542 1.71816 153.542 1.55519C153.542 1.35519 153.564 1.33297 153.764 1.33297C153.905 1.33297 154.009 1.37742 154.038 1.45149Z" fill="white"/>
<path d="M4.09809 5.37749C2.54254 5.72564 1.14254 6.83675 0.461056 8.27378C0.0758704 9.09601 -0.0352407 9.70341 0.00920375 10.8145C0.0610556 12.059 0.298093 12.7849 0.972167 13.696C2.01661 15.1108 3.5055 15.8516 5.27587 15.8516C6.09069 15.8442 6.47587 15.7849 7.09809 15.5405C7.57217 15.3553 8.5055 14.8219 8.5055 14.7405C8.5055 14.7108 8.3055 14.259 8.06106 13.733L7.6092 12.7923L7.33513 13.059C7.18698 13.2071 6.86846 13.4145 6.63883 13.5182C5.35735 14.1034 3.97957 13.8516 2.97957 12.859C1.97217 11.8442 1.72031 10.4219 2.33513 9.12564C2.57217 8.62193 3.29069 7.88119 3.77217 7.64416C4.97217 7.05897 6.14254 7.17008 7.26846 7.97749C7.46846 8.11823 7.63883 8.22193 7.64624 8.20712C7.64624 8.1923 7.85365 7.77749 8.09809 7.27378L8.54254 6.36267L8.35735 6.22193C8.02402 5.97008 7.51291 5.71823 6.91291 5.51082C6.15735 5.25897 4.9055 5.19971 4.09809 5.37749Z" fill="white"/>
<path d="M20.2393 5.3406C19.6541 5.41467 18.8319 5.69615 18.2986 6.01467C18.0615 6.148 17.6023 6.53319 17.2689 6.85911C16.7726 7.35541 16.6097 7.58504 16.3282 8.15541C15.9134 9.02208 15.7578 9.67393 15.7578 10.585C15.7578 11.8665 16.0911 12.9036 16.8319 13.9036C17.7134 15.1036 19.3578 15.9258 20.8763 15.9258C23.343 15.9258 25.4097 14.2295 25.9504 11.748C26.1356 10.9036 26.0763 9.72578 25.8097 8.92578C25.1504 6.97763 23.6023 5.65171 21.6541 5.36282C20.9282 5.25171 20.8986 5.25171 20.2393 5.3406ZM22.0541 7.51097C22.5134 7.68134 23.1134 8.148 23.4615 8.61467C23.8689 9.15541 24.0689 9.70356 24.1134 10.4147C24.2615 12.6221 22.2171 14.3702 20.1504 13.8221C19.0393 13.5258 18.1726 12.6962 17.8245 11.5999C17.706 11.2369 17.6837 10.9999 17.7134 10.4295C17.7356 9.80726 17.7726 9.6443 17.98 9.22949C18.38 8.41467 19.0467 7.77763 19.7948 7.50356C20.4541 7.25911 21.38 7.26652 22.0541 7.51097Z" fill="white"/>
<path d="M64.5053 5.31081C62.6683 5.54044 61.1497 6.62192 60.3571 8.25896C59.9349 9.13303 59.8164 9.66636 59.8164 10.6664C59.8238 11.696 59.9868 12.3997 60.4312 13.2515C61.0979 14.533 62.409 15.5627 63.772 15.8886C64.3942 16.0293 65.6831 16.0293 66.246 15.8886C66.9127 15.7182 67.8164 15.259 68.3349 14.8219C68.7942 14.4441 69.3942 13.733 69.3942 13.5701C69.3942 13.5034 69.0312 13.4812 68.1127 13.4812H66.8238L66.3497 13.7182C65.8979 13.9553 65.8386 13.9627 65.0238 13.9627C64.209 13.9627 64.1497 13.9553 63.6683 13.7182C62.9942 13.3849 62.409 12.8071 62.1349 12.1923C62.009 11.9256 61.9127 11.6886 61.9127 11.6664C61.9127 11.6441 63.772 11.6219 66.046 11.6145L70.172 11.5923L70.1646 10.5553C70.1646 9.65155 70.1349 9.44414 69.972 8.94044C69.409 7.25155 68.0312 5.93303 66.3571 5.48859C65.772 5.33303 64.9423 5.25155 64.5053 5.31081ZM66.1201 7.51081C66.8979 7.79229 67.6979 8.58488 68.009 9.38488L68.1349 9.7034H65.0164H61.9053L61.9497 9.53303C62.0609 9.17007 62.409 8.63673 62.772 8.25155C63.609 7.37747 64.9497 7.08118 66.1201 7.51081Z" fill="white"/>
<path d="M81.9506 5.31104C79.721 5.57771 77.9506 7.13326 77.3877 9.31845C77.1951 10.0814 77.1951 11.2592 77.3951 12.0222C77.8395 13.7851 79.0914 15.1629 80.7803 15.7555C81.3136 15.9481 81.4395 15.9629 82.4692 15.9629C83.484 15.9629 83.6247 15.9407 84.121 15.7629C84.4247 15.6518 84.8543 15.4518 85.084 15.3184C85.5654 15.037 86.5803 14.0666 86.758 13.7184L86.884 13.4814H85.558H84.2321L83.7655 13.7259C83.3136 13.9555 83.2617 13.9629 82.4395 13.9629C81.6395 13.9629 81.5506 13.9481 81.1358 13.7481C80.4914 13.4296 79.8692 12.8147 79.5655 12.1851L79.321 11.6666L83.4617 11.6444L87.6025 11.6296L87.6543 11.1259C87.7136 10.5333 87.5951 9.54808 87.3877 8.93326C86.7136 6.94808 85.0766 5.59252 83.0099 5.33326C82.6766 5.29622 82.3506 5.26659 82.284 5.26659C82.2247 5.274 82.0766 5.29622 81.9506 5.31104ZM83.0173 7.3703C83.884 7.48882 84.8914 8.26659 85.3284 9.15548C85.4617 9.41474 85.5506 9.65178 85.5284 9.66659C85.5062 9.68882 84.0988 9.69622 82.4025 9.68882L79.3136 9.66659L79.5803 9.12585C79.921 8.45178 80.4321 7.92585 81.0617 7.62956C81.5136 7.41474 82.2247 7.25919 82.5432 7.30363C82.6247 7.31104 82.8395 7.34067 83.0173 7.3703Z" fill="white"/>
<path d="M116.801 5.89615V6.53319L116.513 6.29615C116.12 5.99245 115.239 5.59245 114.69 5.48134C114.076 5.348 113.009 5.36282 112.431 5.51097C109.653 6.20726 107.942 9.13319 108.653 11.9702C108.898 12.948 109.335 13.7184 110.061 14.4443C111.09 15.4813 112.157 15.9258 113.587 15.9258C114.705 15.9258 115.757 15.6147 116.476 15.0665C116.601 14.9702 116.727 14.8887 116.75 14.8887C116.779 14.8887 116.801 15.1184 116.801 15.4073V15.9258H117.801H118.801V10.5924V5.25911H117.801H116.801V5.89615ZM114.905 7.66652C117.424 8.85911 117.416 12.4591 114.89 13.6517C114.424 13.8739 114.342 13.8887 113.579 13.8887C112.831 13.8887 112.727 13.8739 112.32 13.6739C111.698 13.3702 111.009 12.6591 110.705 12.0221C110.49 11.548 110.476 11.4665 110.468 10.6665C110.468 9.82208 110.476 9.79986 110.742 9.25171C111.542 7.63689 113.372 6.9406 114.905 7.66652Z" fill="white"/>
<path d="M130.262 5.33964C128.528 5.56186 126.884 6.76186 126.18 8.30261C125.706 9.32483 125.565 10.6508 125.802 11.7915C126.217 13.7841 127.914 15.4285 129.973 15.8211C131.321 16.0804 132.543 15.8508 133.765 15.11L134.269 14.8063L133.825 13.8656C133.573 13.3471 133.365 12.91 133.351 12.8952C133.328 12.873 133.225 12.9471 133.114 13.0508C132.299 13.7989 131.091 14.0508 129.958 13.7026C128.484 13.2433 127.476 11.5989 127.758 10.0878C127.891 9.36927 128.173 8.84335 128.699 8.31001C129.336 7.67298 129.928 7.3989 130.795 7.34705C131.625 7.30261 132.151 7.44335 132.825 7.90261C133.099 8.0952 133.336 8.22853 133.351 8.21372C133.365 8.1989 133.58 7.77668 133.832 7.28038L134.284 6.37668L133.78 6.08779C133.128 5.70261 132.365 5.43594 131.662 5.33964C131.025 5.25075 130.98 5.25075 130.262 5.33964Z" fill="white"/>
<path d="M145.469 5.31047C143.854 5.57714 142.239 6.91788 141.587 8.51788C140.35 11.5549 141.995 14.9697 145.106 15.8216C145.728 15.992 147.032 15.9994 147.669 15.829C148.765 15.5401 149.861 14.8216 150.476 13.9845C150.654 13.7401 150.802 13.5105 150.802 13.4734C150.802 13.4364 150.187 13.4068 149.439 13.4068C148.336 13.4068 148.061 13.429 147.987 13.5179C147.943 13.5771 147.728 13.6882 147.521 13.7623C145.995 14.3327 144.276 13.6586 143.55 12.2142C143.424 11.9623 143.321 11.7105 143.321 11.6512C143.321 11.5697 144.047 11.5549 147.432 11.5549H151.536L151.587 11.2882C151.661 10.8957 151.573 9.66603 151.432 9.15492C150.795 6.8364 148.713 5.2364 146.365 5.26603C145.973 5.27343 145.573 5.29566 145.469 5.31047ZM147.336 7.41418C148.18 7.69566 148.854 8.27344 149.254 9.05121C149.373 9.28825 149.469 9.51047 149.469 9.55492C149.469 9.60677 148.454 9.62899 146.395 9.62899C144.195 9.62899 143.321 9.60677 143.321 9.54751C143.321 9.34751 143.832 8.52529 144.173 8.17714C144.995 7.3401 146.232 7.0364 147.336 7.41418Z" fill="white"/>
</svg>
