<svg width="141" height="41" viewBox="0 0 141 41" fill="none" xmlns="http://www.w3.org/2000/svg">
<path d="M0.571293 18V0.545454H11.1054V2.42045H2.68493V8.31818H10.5599V10.1932H2.68493V16.125H11.2417V18H0.571293ZM20.1455 18.2727C19.0546 18.2727 18.0915 17.9972 17.2563 17.446C16.4211 16.8892 15.7677 16.1051 15.2961 15.0938C14.8245 14.0767 14.5887 12.875 14.5887 11.4886C14.5887 10.1136 14.8245 8.92045 15.2961 7.90909C15.7677 6.89773 16.4239 6.11648 17.2648 5.56534C18.1057 5.0142 19.0773 4.73864 20.1796 4.73864C21.0319 4.73864 21.7052 4.88068 22.1995 5.16477C22.6995 5.44318 23.0802 5.76136 23.3415 6.11932C23.6086 6.47159 23.816 6.76136 23.9637 6.98864H24.1341V0.545454H26.1455V18H24.2023V15.9886H23.9637C23.816 16.2273 23.6057 16.5284 23.333 16.892C23.0603 17.25 22.6711 17.571 22.1654 17.8551C21.6597 18.1335 20.9864 18.2727 20.1455 18.2727ZM20.4182 16.4659C21.225 16.4659 21.9069 16.2557 22.4637 15.8352C23.0205 15.4091 23.4438 14.821 23.7336 14.071C24.0233 13.3153 24.1682 12.4432 24.1682 11.4545C24.1682 10.4773 24.0262 9.62216 23.7421 8.8892C23.458 8.15057 23.0375 7.5767 22.4807 7.16761C21.9239 6.75284 21.2364 6.54545 20.4182 6.54545C19.566 6.54545 18.8557 6.7642 18.2875 7.2017C17.725 7.63352 17.3017 8.22159 17.0177 8.96591C16.7392 9.70455 16.6 10.5341 16.6 11.4545C16.6 12.3864 16.7421 13.233 17.0262 13.9943C17.316 14.75 17.7421 15.3523 18.3046 15.8011C18.8728 16.2443 19.5773 16.4659 20.4182 16.4659ZM30.6686 18V4.90909H32.6799V18H30.6686ZM31.6913 2.72727C31.2993 2.72727 30.9612 2.59375 30.6771 2.3267C30.3987 2.05966 30.2595 1.73864 30.2595 1.36364C30.2595 0.988636 30.3987 0.667614 30.6771 0.400568C30.9612 0.133523 31.2993 0 31.6913 0C32.0833 0 32.4186 0.133523 32.697 0.400568C32.9811 0.667614 33.1231 0.988636 33.1231 1.36364C33.1231 1.73864 32.9811 2.05966 32.697 2.3267C32.4186 2.59375 32.0833 2.72727 31.6913 2.72727ZM42.6171 4.90909V6.61364H35.833V4.90909H42.6171ZM37.8102 1.77273H39.8216V14.25C39.8216 14.8182 39.904 15.2443 40.0688 15.5284C40.2392 15.8068 40.4551 15.9943 40.7165 16.0909C40.9835 16.1818 41.2648 16.2273 41.5602 16.2273C41.7818 16.2273 41.9637 16.2159 42.1057 16.1932C42.2477 16.1648 42.3614 16.142 42.4466 16.125L42.8557 17.9318C42.7193 17.983 42.529 18.0341 42.2847 18.0852C42.0404 18.142 41.7307 18.1705 41.3557 18.1705C40.7875 18.1705 40.2307 18.0483 39.6852 17.804C39.1455 17.5597 38.6966 17.1875 38.3387 16.6875C37.9864 16.1875 37.8102 15.5568 37.8102 14.7955V1.77273ZM46.2026 18V4.90909H48.214V18H46.2026ZM47.2254 2.72727C46.8333 2.72727 46.4952 2.59375 46.2112 2.3267C45.9327 2.05966 45.7935 1.73864 45.7935 1.36364C45.7935 0.988636 45.9327 0.667614 46.2112 0.400568C46.4952 0.133523 46.8333 0 47.2254 0C47.6174 0 47.9526 0.133523 48.231 0.400568C48.5151 0.667614 48.6572 0.988636 48.6572 1.36364C48.6572 1.73864 48.5151 2.05966 48.231 2.3267C47.9526 2.59375 47.6174 2.72727 47.2254 2.72727ZM57.7761 18.2727C56.5943 18.2727 55.5574 17.9915 54.6653 17.429C53.779 16.8665 53.0858 16.0795 52.5858 15.0682C52.0915 14.0568 51.8443 12.875 51.8443 11.5227C51.8443 10.1591 52.0915 8.96875 52.5858 7.9517C53.0858 6.93466 53.779 6.14489 54.6653 5.58239C55.5574 5.01989 56.5943 4.73864 57.7761 4.73864C58.9579 4.73864 59.992 5.01989 60.8784 5.58239C61.7704 6.14489 62.4636 6.93466 62.9579 7.9517C63.4579 8.96875 63.7079 10.1591 63.7079 11.5227C63.7079 12.875 63.4579 14.0568 62.9579 15.0682C62.4636 16.0795 61.7704 16.8665 60.8784 17.429C59.992 17.9915 58.9579 18.2727 57.7761 18.2727ZM57.7761 16.4659C58.6738 16.4659 59.4125 16.2358 59.992 15.7756C60.5716 15.3153 61.0006 14.7102 61.279 13.9602C61.5574 13.2102 61.6966 12.3977 61.6966 11.5227C61.6966 10.6477 61.5574 9.83239 61.279 9.0767C61.0006 8.32102 60.5716 7.71023 59.992 7.24432C59.4125 6.77841 58.6738 6.54545 57.7761 6.54545C56.8784 6.54545 56.1398 6.77841 55.5602 7.24432C54.9807 7.71023 54.5517 8.32102 54.2733 9.0767C53.9949 9.83239 53.8557 10.6477 53.8557 11.5227C53.8557 12.3977 53.9949 13.2102 54.2733 13.9602C54.5517 14.7102 54.9807 15.3153 55.5602 15.7756C56.1398 16.2358 56.8784 16.4659 57.7761 16.4659ZM69.3496 10.125V18H67.3383V4.90909H69.2814V6.95455H69.4519C69.7587 6.28977 70.2246 5.75568 70.8496 5.35227C71.4746 4.94318 72.2814 4.73864 73.2701 4.73864C74.1564 4.73864 74.932 4.92045 75.5968 5.28409C76.2615 5.64205 76.7786 6.1875 77.1479 6.92045C77.5172 7.64773 77.7019 8.56818 77.7019 9.68182V18H75.6905V9.81818C75.6905 8.78977 75.4235 7.98864 74.8894 7.41477C74.3553 6.83523 73.6223 6.54545 72.6905 6.54545C72.0485 6.54545 71.4746 6.68466 70.9689 6.96307C70.4689 7.24148 70.074 7.64773 69.7843 8.18182C69.4945 8.71591 69.3496 9.36364 69.3496 10.125ZM96.2019 0.545454H98.3155V13.0227C98.3155 14.1364 98.111 15.0824 97.7019 15.8608C97.2928 16.6392 96.7161 17.2301 95.9718 17.6335C95.2274 18.0369 94.3496 18.2386 93.3382 18.2386C92.3837 18.2386 91.5343 18.0653 90.7899 17.7188C90.0456 17.3665 89.4604 16.8665 89.0343 16.2188C88.6081 15.571 88.395 14.8011 88.395 13.9091H90.4746C90.4746 14.4034 90.5968 14.8352 90.8411 15.2045C91.0911 15.5682 91.432 15.8523 91.8638 16.0568C92.2956 16.2614 92.7871 16.3636 93.3382 16.3636C93.9462 16.3636 94.4632 16.2358 94.8894 15.9801C95.3155 15.7244 95.6394 15.3494 95.861 14.8551C96.0882 14.3551 96.2019 13.7443 96.2019 13.0227V0.545454ZM111.089 12.6477V4.90909H113.1V18H111.089V15.7841H110.952C110.645 16.4489 110.168 17.0142 109.52 17.4801C108.873 17.9403 108.054 18.1705 107.066 18.1705C106.248 18.1705 105.52 17.9915 104.884 17.6335C104.248 17.2699 103.748 16.7244 103.384 15.9972C103.02 15.2642 102.839 14.3409 102.839 13.2273V4.90909H104.85V13.0909C104.85 14.0455 105.117 14.8068 105.651 15.375C106.191 15.9432 106.878 16.2273 107.714 16.2273C108.214 16.2273 108.722 16.0994 109.239 15.8438C109.762 15.5881 110.199 15.196 110.552 14.6676C110.91 14.1392 111.089 13.4659 111.089 12.6477ZM119.355 0.545454V18H117.344V0.545454H119.355ZM123.599 18V4.90909H125.611V18H123.599ZM124.622 2.72727C124.23 2.72727 123.892 2.59375 123.608 2.3267C123.329 2.05966 123.19 1.73864 123.19 1.36364C123.19 0.988636 123.329 0.667614 123.608 0.400568C123.892 0.133523 124.23 0 124.622 0C125.014 0 125.349 0.133523 125.628 0.400568C125.912 0.667614 126.054 0.988636 126.054 1.36364C126.054 1.73864 125.912 2.05966 125.628 2.3267C125.349 2.59375 125.014 2.72727 124.622 2.72727ZM135.343 18.2727C134.082 18.2727 132.994 17.9943 132.079 17.4375C131.17 16.875 130.468 16.0909 129.974 15.0852C129.485 14.0739 129.241 12.8977 129.241 11.5568C129.241 10.2159 129.485 9.03409 129.974 8.01136C130.468 6.98295 131.156 6.18182 132.036 5.60795C132.923 5.02841 133.957 4.73864 135.139 4.73864C135.82 4.73864 136.494 4.85227 137.158 5.07954C137.823 5.30682 138.428 5.67614 138.974 6.1875C139.519 6.69318 139.954 7.36364 140.278 8.19886C140.602 9.03409 140.764 10.0625 140.764 11.2841V12.1364H130.673V10.3977H138.718C138.718 9.65909 138.57 9 138.275 8.42045C137.985 7.84091 137.57 7.38352 137.031 7.0483C136.497 6.71307 135.866 6.54545 135.139 6.54545C134.337 6.54545 133.644 6.74432 133.059 7.14205C132.48 7.53409 132.033 8.04545 131.721 8.67614C131.408 9.30682 131.252 9.98295 131.252 10.7045V11.8636C131.252 12.8523 131.423 13.6903 131.764 14.3778C132.11 15.0597 132.59 15.5795 133.204 15.9375C133.818 16.2898 134.531 16.4659 135.343 16.4659C135.872 16.4659 136.349 16.392 136.775 16.2443C137.207 16.0909 137.579 15.8636 137.891 15.5625C138.204 15.2557 138.445 14.875 138.616 14.4205L140.559 14.9659C140.355 15.625 140.011 16.2045 139.528 16.7045C139.045 17.1989 138.448 17.5852 137.738 17.8636C137.028 18.1364 136.23 18.2727 135.343 18.2727ZM47.4033 22.5455H49.5169V35.0227C49.5169 36.1364 49.3124 37.0824 48.9033 37.8608C48.4942 38.6392 47.9175 39.2301 47.1732 39.6335C46.4288 40.0369 45.551 40.2386 44.5396 40.2386C43.5851 40.2386 42.7357 40.0653 41.9913 39.7188C41.247 39.3665 40.6618 38.8665 40.2357 38.2188C39.8095 37.571 39.5964 36.8011 39.5964 35.9091H41.676C41.676 36.4034 41.7982 36.8352 42.0425 37.2045C42.2925 37.5682 42.6334 37.8523 43.0652 38.0568C43.497 38.2614 43.9885 38.3636 44.5396 38.3636C45.1476 38.3636 45.6646 38.2358 46.0908 37.9801C46.5169 37.7244 46.8408 37.3494 47.0624 36.8551C47.2896 36.3551 47.4033 35.7443 47.4033 35.0227V22.5455ZM59.3582 40.2727C58.1763 40.2727 57.1394 39.9915 56.2474 39.429C55.361 38.8665 54.6678 38.0795 54.1678 37.0682C53.6735 36.0568 53.4263 34.875 53.4263 33.5227C53.4263 32.1591 53.6735 30.9687 54.1678 29.9517C54.6678 28.9347 55.361 28.1449 56.2474 27.5824C57.1394 27.0199 58.1763 26.7386 59.3582 26.7386C60.54 26.7386 61.5741 27.0199 62.4604 27.5824C63.3525 28.1449 64.0457 28.9347 64.54 29.9517C65.04 30.9687 65.29 32.1591 65.29 33.5227C65.29 34.875 65.04 36.0568 64.54 37.0682C64.0457 38.0795 63.3525 38.8665 62.4604 39.429C61.5741 39.9915 60.54 40.2727 59.3582 40.2727ZM59.3582 38.4659C60.2559 38.4659 60.9945 38.2358 61.5741 37.7756C62.1536 37.3153 62.5826 36.7102 62.861 35.9602C63.1394 35.2102 63.2786 34.3977 63.2786 33.5227C63.2786 32.6477 63.1394 31.8324 62.861 31.0767C62.5826 30.321 62.1536 29.7102 61.5741 29.2443C60.9945 28.7784 60.2559 28.5455 59.3582 28.5455C58.4604 28.5455 57.7218 28.7784 57.1422 29.2443C56.5627 29.7102 56.1337 30.321 55.8553 31.0767C55.5769 31.8324 55.4377 32.6477 55.4377 33.5227C55.4377 34.3977 55.5769 35.2102 55.8553 35.9602C56.1337 36.7102 56.5627 37.3153 57.1422 37.7756C57.7218 38.2358 58.4604 38.4659 59.3582 38.4659ZM70.9316 22.5455V40H68.9203V22.5455H70.9316ZM75.1756 40V26.9091H77.187V40H75.1756ZM76.1983 24.7273C75.8063 24.7273 75.4682 24.5938 75.1841 24.3267C74.9057 24.0597 74.7665 23.7386 74.7665 23.3636C74.7665 22.9886 74.9057 22.6676 75.1841 22.4006C75.4682 22.1335 75.8063 22 76.1983 22C76.5904 22 76.9256 22.1335 77.204 22.4006C77.4881 22.6676 77.6301 22.9886 77.6301 23.3636C77.6301 23.7386 77.4881 24.0597 77.204 24.3267C76.9256 24.5938 76.5904 24.7273 76.1983 24.7273ZM85.2832 40.3068C84.4536 40.3068 83.7008 40.1506 83.0247 39.8381C82.3485 39.5199 81.8116 39.0625 81.4139 38.4659C81.0161 37.8636 80.8173 37.1364 80.8173 36.2841C80.8173 35.5341 80.965 34.9261 81.2605 34.4602C81.5559 33.9886 81.9508 33.6193 82.4451 33.3523C82.9394 33.0852 83.4849 32.8864 84.0815 32.7557C84.6837 32.6193 85.2889 32.5114 85.8968 32.4318C86.6923 32.3295 87.3372 32.2528 87.8315 32.2017C88.3315 32.1449 88.6951 32.0511 88.9224 31.9205C89.1553 31.7898 89.2718 31.5625 89.2718 31.2386V31.1705C89.2718 30.3295 89.0417 29.6761 88.5815 29.2102C88.1269 28.7443 87.4366 28.5114 86.5105 28.5114C85.5502 28.5114 84.7974 28.7216 84.2519 29.142C83.7065 29.5625 83.323 30.0114 83.1014 30.4886L81.1923 29.8068C81.5332 29.0114 81.9877 28.392 82.5559 27.9489C83.1298 27.5 83.7548 27.1875 84.4309 27.0114C85.1127 26.8295 85.7832 26.7386 86.4423 26.7386C86.8627 26.7386 87.3457 26.7898 87.8911 26.892C88.4423 26.9886 88.9735 27.1903 89.4849 27.4972C90.0019 27.804 90.4309 28.267 90.7718 28.8864C91.1127 29.5057 91.2832 30.3352 91.2832 31.375V40H89.2718V38.2273H89.1695C89.0332 38.5114 88.8059 38.8153 88.4877 39.1392C88.1695 39.4631 87.7462 39.7386 87.2178 39.9659C86.6894 40.1932 86.0445 40.3068 85.2832 40.3068ZM85.59 38.5C86.3855 38.5 87.0559 38.3438 87.6014 38.0312C88.1525 37.7188 88.5673 37.3153 88.8457 36.821C89.1298 36.3267 89.2718 35.8068 89.2718 35.2614V33.4205C89.1866 33.5227 88.9991 33.6165 88.7093 33.7017C88.4252 33.7812 88.0957 33.8523 87.7207 33.9148C87.3514 33.9716 86.9906 34.0227 86.6383 34.0682C86.2917 34.108 86.0105 34.142 85.7945 34.1705C85.2718 34.2386 84.7832 34.3494 84.3286 34.5028C83.8798 34.6506 83.5161 34.875 83.2377 35.1761C82.965 35.4716 82.8286 35.875 82.8286 36.3864C82.8286 37.0852 83.0872 37.6136 83.6042 37.9716C84.1269 38.3239 84.7889 38.5 85.59 38.5ZM101.208 26.9091V28.6136H94.4234V26.9091H101.208ZM96.4007 23.7727H98.4121V36.25C98.4121 36.8182 98.4945 37.2443 98.6592 37.5284C98.8297 37.8068 99.0456 37.9943 99.307 38.0909C99.574 38.1818 99.8552 38.2273 100.151 38.2273C100.372 38.2273 100.554 38.2159 100.696 38.1932C100.838 38.1648 100.952 38.142 101.037 38.125L101.446 39.9318C101.31 39.983 101.119 40.0341 100.875 40.0852C100.631 40.142 100.321 40.1705 99.9462 40.1705C99.378 40.1705 98.8212 40.0483 98.2757 39.804C97.7359 39.5597 97.2871 39.1875 96.9291 38.6875C96.5768 38.1875 96.4007 37.5568 96.4007 36.7955V23.7727Z" fill="white"/>
</svg>
