<svg width="132" height="33" viewBox="0 0 132 33" fill="none" xmlns="http://www.w3.org/2000/svg">
<path d="M8.23715 1.83811C-2.99293 7.39526 -2.6456 25.9191 8.70025 30.6658C19.6988 35.181 31.2762 28.4661 31.2762 17.4676V13.7628H23.172H15.0678V17.2361C15.0678 20.4777 15.4151 20.7093 19.4672 20.7093L23.7509 20.825L20.9723 23.0248C17.3833 26.0349 14.7205 25.9191 10.9 22.6774C6.61632 18.8569 6.61632 13.2997 10.9 9.4792C14.7205 6.23752 17.3833 6.12175 21.0881 9.13187L23.9824 11.3316L26.6452 8.553C29.6553 5.31133 29.1922 4.26937 23.8666 1.72234C18.8884 -0.593143 13.2154 -0.593143 8.23715 1.83811Z" fill="white"/>
<path d="M105.604 2.18578C97.4998 7.16406 94.9528 17.0048 99.9311 24.2986C103.636 29.9715 109.309 32.6343 115.792 31.7081C118.686 31.3608 123.433 31.1293 126.559 31.1293C131.653 31.245 132 31.0135 132 28.2349C132 26.151 131.422 25.3406 129.685 25.3406C127.717 25.3406 127.485 24.9933 128.527 23.1409C130.611 19.2046 129.917 10.4057 127.254 6.58519C122.507 -0.0139275 112.55 -1.98209 105.604 2.18578ZM117.413 8.09025C120.076 9.36377 123.433 15.7313 122.16 17.0048C121.812 17.3522 120.655 16.7733 119.497 15.7313C118.339 14.5736 115.676 13.7632 113.708 13.7632C110.351 13.7632 110.003 14.1105 110.003 17.2364C110.003 19.8992 110.582 20.7096 112.203 20.7096C113.361 20.7096 114.982 21.52 115.792 22.4462C117.876 24.9933 113.94 26.151 110.119 24.0671C104.099 20.7096 103.983 11.3319 110.003 8.3218C113.592 6.46942 113.824 6.46942 117.413 8.09025Z" fill="white"/>
<path d="M33.5918 16.0783V31.1289H45.1692H56.7466V28.2346C56.7466 25.456 56.5151 25.3402 49.2213 25.3402C41.9275 25.3402 41.696 25.2244 41.696 22.4459C41.696 19.6673 42.0433 19.5515 48.6424 19.5515H55.5889V16.0783V12.6051H48.6424C42.0433 12.6051 41.696 12.4893 41.696 9.71072C41.696 6.93214 41.9275 6.81637 49.2213 6.81637C56.5151 6.81637 56.7466 6.70059 56.7466 3.92202V1.02767H45.1692H33.5918V16.0783Z" fill="white"/>
<path d="M60.2188 16.0783V31.1289H71.7962H83.3736V28.2346C83.3736 25.456 83.142 25.3402 75.8482 25.3402C68.5545 25.3402 68.3229 25.2244 68.3229 22.4459C68.3229 19.6673 68.6703 19.5515 74.6905 19.5515C80.9423 19.5515 81.0581 19.5515 81.0581 16.0783C81.0581 12.6051 80.9423 12.6051 74.6905 12.6051C68.6703 12.6051 68.3229 12.4893 68.3229 9.71072C68.3229 6.93214 68.5545 6.81637 75.8482 6.81637C83.142 6.81637 83.3736 6.70059 83.3736 3.92202V1.02767H71.7962H60.2188V16.0783Z" fill="white"/>
<path d="M86.8477 16.0783V31.1289H90.3209H93.7941V16.0783V1.02767H90.3209H86.8477V16.0783Z" fill="white"/>
</svg>
