<svg width="93" height="24" viewBox="0 0 93 24" fill="none" xmlns="http://www.w3.org/2000/svg">
<path d="M4.01562 23H0.390625C0.307292 23 0.265625 22.9479 0.265625 22.8438L0.296875 0.859375C0.296875 0.776042 0.348958 0.734375 0.453125 0.734375H4.01562C4.11979 0.734375 4.17188 0.776042 4.17188 0.859375L4.14062 9.5625H8.9375V0.859375C8.9375 0.776042 8.97917 0.734375 9.0625 0.734375H12.625C12.7292 0.734375 12.7812 0.776042 12.7812 0.859375L12.8438 22.8438C12.8438 22.9479 12.7917 23 12.6875 23H9.09375C8.98958 23 8.9375 22.9479 8.9375 22.8438V13.4375H4.14062V22.8438C4.14062 22.9479 4.09896 23 4.01562 23ZM21.375 23.3125C20.2396 23.3125 19.1927 23.0208 18.2344 22.4375C17.2865 21.8542 16.5208 21.0781 15.9375 20.1094C15.3646 19.1302 15.0781 18.0573 15.0781 16.8906L15.1094 6.75C15.1094 5.5625 15.3958 4.49479 15.9688 3.54688C16.5312 2.58854 17.2917 1.82292 18.25 1.25C19.2083 0.666667 20.25 0.375 21.375 0.375C22.5417 0.375 23.5885 0.661458 24.5156 1.23438C25.4531 1.80729 26.2031 2.57812 26.7656 3.54688C27.3385 4.50521 27.625 5.57292 27.625 6.75L27.6562 16.8906C27.6562 18.0573 27.375 19.125 26.8125 20.0938C26.2396 21.0729 25.4792 21.8542 24.5312 22.4375C23.5833 23.0208 22.5312 23.3125 21.375 23.3125ZM21.375 19.4531C22.0208 19.4531 22.5833 19.1927 23.0625 18.6719C23.5417 18.1406 23.7812 17.5469 23.7812 16.8906L23.75 6.75C23.75 6.04167 23.526 5.44271 23.0781 4.95312C22.6302 4.46354 22.0625 4.21875 21.375 4.21875C20.7188 4.21875 20.1562 4.45833 19.6875 4.9375C19.2188 5.41667 18.9844 6.02083 18.9844 6.75V16.8906C18.9844 17.5885 19.2188 18.1927 19.6875 18.7031C20.1562 19.2031 20.7188 19.4531 21.375 19.4531ZM36 23.3125C34.8646 23.3125 33.8177 23.0208 32.8594 22.4375C31.9115 21.8542 31.1458 21.0781 30.5625 20.1094C29.9896 19.1302 29.7031 18.0573 29.7031 16.8906L29.7344 6.75C29.7344 5.5625 30.0208 4.49479 30.5938 3.54688C31.1562 2.58854 31.9167 1.82292 32.875 1.25C33.8333 0.666667 34.875 0.375 36 0.375C37.1667 0.375 38.2135 0.661458 39.1406 1.23438C40.0781 1.80729 40.8281 2.57812 41.3906 3.54688C41.9635 4.50521 42.25 5.57292 42.25 6.75L42.2812 16.8906C42.2812 18.0573 42 19.125 41.4375 20.0938C40.8646 21.0729 40.1042 21.8542 39.1562 22.4375C38.2083 23.0208 37.1562 23.3125 36 23.3125ZM36 19.4531C36.6458 19.4531 37.2083 19.1927 37.6875 18.6719C38.1667 18.1406 38.4062 17.5469 38.4062 16.8906L38.375 6.75C38.375 6.04167 38.151 5.44271 37.7031 4.95312C37.2552 4.46354 36.6875 4.21875 36 4.21875C35.3438 4.21875 34.7812 4.45833 34.3125 4.9375C33.8438 5.41667 33.6094 6.02083 33.6094 6.75V16.8906C33.6094 17.5885 33.8438 18.1927 34.3125 18.7031C34.7812 19.2031 35.3438 19.4531 36 19.4531ZM48.4531 23H44.8281C44.7448 23 44.7031 22.9479 44.7031 22.8438L44.7656 0.890625C44.7656 0.786458 44.8073 0.734375 44.8906 0.734375H48.4844C48.5677 0.734375 48.6094 0.786458 48.6094 0.890625V8.46875L53.625 0.859375C53.7083 0.776042 53.7865 0.734375 53.8594 0.734375H57.5312C57.625 0.734375 57.6458 0.776042 57.5938 0.859375L52.0625 9.6875L58.2656 22.875C58.3177 22.9583 58.2656 23 58.1094 23H54.2031C54.099 23 54.0365 22.9583 54.0156 22.875L49.6875 13.4688L48.5781 15.2188V22.8438C48.5781 22.9479 48.5365 23 48.4531 23ZM70.1719 23H59.8281C59.7448 23 59.7031 22.9479 59.7031 22.8438L59.7344 0.859375C59.7344 0.776042 59.776 0.734375 59.8594 0.734375H70.1406C70.224 0.734375 70.2656 0.786458 70.2656 0.890625V4.46875C70.2656 4.55208 70.224 4.59375 70.1406 4.59375H63.5781V9.59375H70.1406C70.224 9.59375 70.2656 9.63542 70.2656 9.71875L70.2969 13.3438C70.2969 13.4271 70.2552 13.4688 70.1719 13.4688H63.5781V19.0625H70.1719C70.2552 19.0625 70.2969 19.1146 70.2969 19.2188V22.875C70.2969 22.9583 70.2552 23 70.1719 23ZM79.0312 22.9688L73.2969 23C73.1927 23 73.1406 22.9479 73.1406 22.8438L73.2031 0.859375C73.2031 0.776042 73.2448 0.734375 73.3281 0.734375L79.3125 0.703125C80.5 0.671875 81.5729 0.942708 82.5312 1.51562C83.5 2.08854 84.2708 2.86458 84.8438 3.84375C85.4271 4.8125 85.7188 5.88542 85.7188 7.0625V16.25C85.7188 17.4792 85.4219 18.6042 84.8281 19.625C84.224 20.6354 83.4219 21.4427 82.4219 22.0469C81.4219 22.6406 80.2917 22.9479 79.0312 22.9688ZM79.3125 4.53125L77.0781 4.5625L77.0469 19.0625H79.0312C79.8229 19.0625 80.4896 18.7865 81.0312 18.2344C81.5729 17.6823 81.8438 17.0208 81.8438 16.25V7.03125C81.8438 6.35417 81.5938 5.76562 81.0938 5.26562C80.5938 4.75521 80 4.51042 79.3125 4.53125ZM91.9844 23H88.3594C88.276 23 88.2344 22.9583 88.2344 22.875V19.25C88.2344 19.1667 88.276 19.125 88.3594 19.125H91.9844C92.0677 19.125 92.1094 19.1667 92.1094 19.25V22.875C92.1094 22.9583 92.0677 23 91.9844 23Z" fill="white"/>
</svg>
