<svg width="113" height="46" viewBox="0 0 113 46" fill="none" xmlns="http://www.w3.org/2000/svg">
<path d="M71.8696 0.401257C69.6096 1.39001 67.2648 4.94953 66.5021 8.56555C65.9088 11.2493 65.9936 16.1366 66.6716 18.7921C67.3496 21.4759 68.8186 23.7641 70.5983 24.8659C71.2763 25.3179 73.0561 26.0806 74.5251 26.5609C78.7061 27.9451 79.9491 29.3859 79.9491 32.9172C79.9491 34.5557 78.8474 37.0417 77.8304 37.7197C75.5704 39.217 72.1803 37.9739 70.7113 35.1489C70.1463 34.0754 69.4966 31.7307 69.4966 30.6854V29.9227H67.2366C65.6263 29.9227 64.9766 30.0357 64.9766 30.2617C64.9766 30.4594 65.1743 31.8437 65.4003 33.3127C66.0783 37.8609 67.3213 40.686 69.5531 42.9177C71.2763 44.641 72.6041 45.1777 75.1466 45.1777C78.2259 45.1777 79.7231 44.3867 81.7571 41.703C83.7064 39.1605 84.7799 33.4822 84.2149 28.9904C83.4522 23.2839 81.1074 20.5154 75.4009 18.6508C73.1691 17.9163 71.3611 16.4756 70.8808 15.0348C70.7113 14.4416 70.5983 13.1703 70.6831 12.0121C70.8243 9.69555 71.7566 7.91579 73.1409 7.18129C74.2991 6.58804 76.2201 6.64454 77.2936 7.29429C78.3954 7.97229 79.5819 10.3171 79.8361 12.3228L80.0339 13.8201H82.2374H84.4692V13.0291C84.4692 11.3906 83.3109 6.84229 82.5199 5.20378C81.5029 3.16977 79.7231 1.24876 78.1129 0.514256C76.7569 -0.107246 73.1974 -0.191998 71.8696 0.401257Z" fill="white"/>
<path d="M0 22.5775V44.3301H2.11876H4.23752V35.5725V26.815H10.0288H15.8201V35.5725V44.3301H17.9388H20.0576V22.5775V0.824856H17.9388H15.8201V10.0062V19.1874H10.0288H4.23752V10.0062V0.824856H2.11876H0V22.5775Z" fill="white"/>
<path d="M25.4238 0.96545C25.4238 1.1067 28.3618 14.6103 28.8138 16.503C29.5766 19.8365 30.0286 21.8423 31.2434 27.3793C31.9496 30.7129 32.6559 33.9616 32.7689 34.5831C33.2209 36.7301 34.7746 43.6232 34.9159 44.1034C35.1419 44.8379 38.8709 44.8379 39.0969 44.1034C39.1817 43.8492 40.1987 39.1596 41.3852 33.7356C42.5434 28.2833 43.6452 23.3396 43.7864 22.7181C43.9277 22.0966 45.0012 17.2093 46.1877 11.8418C47.3459 6.47423 48.3629 1.81295 48.4477 1.4457C48.5889 0.852451 48.5324 0.8242 46.1877 0.8242C44.8599 0.8242 43.7864 0.880699 43.7864 0.937202C43.7864 1.07845 41.9784 9.80775 40.9614 14.6668C39.9727 19.2998 38.7296 25.2606 37.8256 29.6393C37.4866 31.2779 37.1194 32.6904 37.0346 32.8316C36.9216 32.9446 36.6109 31.9841 36.3566 30.7129C36.1024 29.4133 35.5091 26.5318 35.0289 24.2718C34.5486 22.0118 34.0401 19.6105 33.8989 18.9043C33.7576 18.198 33.2491 15.7968 32.7689 13.5368C31.6389 8.19749 30.2264 1.30445 30.2264 1.02195C30.2264 0.908951 29.1528 0.8242 27.8251 0.8242C26.4973 0.8242 25.4238 0.880699 25.4238 0.96545Z" fill="white"/>
<path d="M53.957 22.5775V44.3301H56.0758H58.1946V22.5775V0.824856H56.0758H53.957V22.5775Z" fill="white"/>
<path d="M91.5293 22.5775V44.3301H93.6481H95.7668V39.3863V34.4425L97.6596 30.4875C98.6766 28.3122 99.6088 26.5325 99.7218 26.5325C99.8066 26.5325 100.569 28.0862 101.417 29.979C103.818 35.4595 105.372 38.9908 107.152 42.9741L107.745 44.3301H110.372C111.813 44.3301 112.999 44.2171 112.999 44.0758C112.999 43.8498 112.576 42.8328 110.711 38.7365C110.259 37.7478 109.892 36.9003 109.892 36.8438C109.892 36.7308 106.841 29.6965 106.219 28.3687C105.118 26.024 102.829 20.487 102.829 20.1762C102.829 19.9785 103.79 17.8597 104.976 15.4867C106.163 13.0854 108.14 9.04565 109.383 6.47488C110.626 3.90412 111.756 1.58761 111.926 1.30511C112.152 0.853104 111.954 0.824856 109.525 0.824856H106.897L101.389 11.8989L95.9081 23.0012L95.8233 11.8989L95.7668 0.824856H93.6481H91.5293V22.5775Z" fill="white"/>
</svg>
