<svg width="91" height="24" viewBox="0 0 91 24" fill="none" xmlns="http://www.w3.org/2000/svg">
<path d="M4.04688 23H0.421875C0.317708 23 0.265625 22.9479 0.265625 22.8438L0.296875 0.859375C0.296875 0.776042 0.338542 0.734375 0.421875 0.734375H4.01562C4.09896 0.734375 4.14062 0.776042 4.14062 0.859375L4.17188 22.8438C4.17188 22.9479 4.13021 23 4.04688 23ZM10.4688 23H7.26562C7.09896 23 7.01562 22.9271 7.01562 22.7812L6.98438 0.984375C6.98438 0.817708 7.06771 0.734375 7.23438 0.734375H10.125L15.5312 13.3438L15.375 0.984375C15.375 0.817708 15.4688 0.734375 15.6562 0.734375H18.8281C18.9531 0.734375 19.0156 0.817708 19.0156 0.984375L19.0469 22.8125C19.0469 22.9375 18.9948 23 18.8906 23H16.0781L10.5312 11.2188L10.7656 22.75C10.7656 22.9167 10.6667 23 10.4688 23ZM28.6562 23H24.7812C24.6875 23 24.6354 22.9479 24.625 22.8438L20.8438 0.859375C20.8229 0.776042 20.8542 0.734375 20.9375 0.734375H24.5312C24.6146 0.734375 24.6667 0.776042 24.6875 0.859375L26.7344 15.3125L28.8438 0.859375C28.8646 0.776042 28.9271 0.734375 29.0312 0.734375H31.9219C32.0052 0.734375 32.0573 0.776042 32.0781 0.859375L34.1562 15.3125L36.2344 0.859375C36.2552 0.776042 36.3073 0.734375 36.3906 0.734375H39.9531C40.0573 0.734375 40.099 0.776042 40.0781 0.859375L36.2656 22.8438C36.2552 22.8854 36.224 22.9219 36.1719 22.9531L36.1094 23H32.2344C32.1719 23 32.1198 22.9479 32.0781 22.8438L30.4375 11.3594L28.8125 22.8438C28.8021 22.9479 28.75 23 28.6562 23ZM47.875 23.3125C46.7396 23.3125 45.6927 23.0208 44.7344 22.4375C43.7865 21.8542 43.0208 21.0781 42.4375 20.1094C41.8646 19.1302 41.5781 18.0573 41.5781 16.8906L41.6094 6.75C41.6094 5.5625 41.8958 4.49479 42.4688 3.54688C43.0312 2.58854 43.7917 1.82292 44.75 1.25C45.7083 0.666667 46.75 0.375 47.875 0.375C49.0417 0.375 50.0885 0.661458 51.0156 1.23438C51.9531 1.80729 52.7031 2.57812 53.2656 3.54688C53.8385 4.50521 54.125 5.57292 54.125 6.75L54.1562 16.8906C54.1562 18.0573 53.875 19.125 53.3125 20.0938C52.7396 21.0729 51.9792 21.8542 51.0312 22.4375C50.0833 23.0208 49.0312 23.3125 47.875 23.3125ZM47.875 19.4531C48.5208 19.4531 49.0833 19.1927 49.5625 18.6719C50.0417 18.1406 50.2812 17.5469 50.2812 16.8906L50.25 6.75C50.25 6.04167 50.026 5.44271 49.5781 4.95312C49.1302 4.46354 48.5625 4.21875 47.875 4.21875C47.2188 4.21875 46.6562 4.45833 46.1875 4.9375C45.7188 5.41667 45.4844 6.02083 45.4844 6.75V16.8906C45.4844 17.5885 45.7188 18.1927 46.1875 18.7031C46.6562 19.2031 47.2188 19.4531 47.875 19.4531ZM60.3281 23H56.7031C56.6198 23 56.5781 22.9479 56.5781 22.8438L56.6094 0.859375C56.6094 0.776042 56.6615 0.734375 56.7656 0.734375H60.3281C60.4323 0.734375 60.4844 0.776042 60.4844 0.859375L60.4531 9.5625H65.25V0.859375C65.25 0.776042 65.2917 0.734375 65.375 0.734375H68.9375C69.0417 0.734375 69.0938 0.776042 69.0938 0.859375L69.1562 22.8438C69.1562 22.9479 69.1042 23 69 23H65.4062C65.3021 23 65.25 22.9479 65.25 22.8438V13.4375H60.4531V22.8438C60.4531 22.9479 60.4115 23 60.3281 23ZM75.25 23H72.0469C71.8802 23 71.7969 22.9271 71.7969 22.7812L71.7656 0.984375C71.7656 0.817708 71.849 0.734375 72.0156 0.734375H74.9062L80.3125 13.3438L80.1562 0.984375C80.1562 0.817708 80.25 0.734375 80.4375 0.734375H83.6094C83.7344 0.734375 83.7969 0.817708 83.7969 0.984375L83.8281 22.8125C83.8281 22.9375 83.776 23 83.6719 23H80.8594L75.3125 11.2188L75.5469 22.75C75.5469 22.9167 75.4479 23 75.25 23ZM90.3594 23H86.7344C86.651 23 86.6094 22.9583 86.6094 22.875V19.25C86.6094 19.1667 86.651 19.125 86.7344 19.125H90.3594C90.4427 19.125 90.4844 19.1667 90.4844 19.25V22.875C90.4844 22.9583 90.4427 23 90.3594 23Z" fill="white"/>
</svg>
