<svg width="142" height="24" viewBox="0 0 142 24" fill="none" xmlns="http://www.w3.org/2000/svg">
<path d="M1.59375 23C0.864583 23 0.5 22.6094 0.5 21.8281V1.76562C0.5 0.984375 0.864583 0.59375 1.59375 0.59375H3.96875C4.69792 0.59375 5.0625 0.984375 5.0625 1.76562V7.98438C5.0625 8.60938 5.03646 9.23438 4.98438 9.85938H5.09375L12.6875 1.51562C13.25 0.901042 13.7292 0.59375 14.125 0.59375H17.2656C18.4844 0.59375 18.6823 1.04167 17.8594 1.9375L10.75 9.71875L18.3594 21.6562C18.9323 22.5521 18.7344 23 17.7656 23H14.8438C14.3021 23 13.8333 22.6927 13.4375 22.0781L7.6875 13.0625L5.0625 16.0156V21.8281C5.0625 22.6094 4.69792 23 3.96875 23H1.59375ZM22.875 23C22.1458 23 21.7812 22.6094 21.7812 21.8281V1.76562C21.7812 0.984375 22.1458 0.59375 22.875 0.59375H25.4062C26.0312 0.59375 26.3438 0.984375 26.3438 1.76562V19.125H35.4531C36.2344 19.125 36.625 19.4635 36.625 20.1406V21.9844C36.625 22.6615 36.2344 23 35.4531 23H22.875ZM41.0312 23C40.3021 23 39.9375 22.6094 39.9375 21.8281V1.76562C39.9375 0.984375 40.3021 0.59375 41.0312 0.59375H54.4375C55.2188 0.59375 55.6094 0.932292 55.6094 1.60938V3.45312C55.6094 4.13021 55.2188 4.46875 54.4375 4.46875H44.5V9.4375H53.6094C54.3906 9.4375 54.7812 9.77604 54.7812 10.4531V12.2969C54.7812 12.974 54.3906 13.3125 53.6094 13.3125H44.5V19.125H54.9375C55.7188 19.125 56.1094 19.4635 56.1094 20.1406V21.9844C56.1094 22.6615 55.7188 23 54.9375 23H41.0312ZM59.2344 23C58.4844 23 58.2396 22.6562 58.5 21.9688L66.1562 1.85938C66.4792 1.01562 66.9688 0.59375 67.625 0.59375H69.8125C70.4688 0.59375 70.9583 1.01562 71.2812 1.85938L78.9375 21.9688C79.1979 22.6562 78.9531 23 78.2031 23H75.7188C75.0312 23 74.5521 22.6406 74.2812 21.9219L72.6875 17.7188H64.75L63.1562 21.9219C62.8854 22.6406 62.4062 23 61.7188 23H59.2344ZM66.2031 13.8438H71.2344L69.3125 8.875C69.0833 8.29167 68.9427 7.86979 68.8906 7.60938C68.849 7.33854 68.8021 6.94271 68.75 6.42188H68.6875C68.6354 6.94271 68.5833 7.33854 68.5312 7.60938C68.4896 7.86979 68.3542 8.29167 68.125 8.875L66.2031 13.8438ZM82.8125 23C82.0833 23 81.7188 22.6094 81.7188 21.8281V1.76562C81.7188 0.984375 82.0833 0.59375 82.8125 0.59375H85.125C86.0208 0.59375 86.6979 0.958333 87.1562 1.6875L95.125 14.4844H95.2344C95.1823 13.8594 95.1562 13.2344 95.1562 12.6094V1.76562C95.1562 0.984375 95.5208 0.59375 96.25 0.59375H98.625C99.3542 0.59375 99.7188 0.984375 99.7188 1.76562V21.8281C99.7188 22.6094 99.3542 23 98.625 23H96.4688C95.5729 23 94.8958 22.6354 94.4375 21.9062L86.3125 8.875H86.2031C86.2552 9.5 86.2812 10.125 86.2812 10.75V21.8281C86.2812 22.6094 85.9167 23 85.1875 23H82.8125ZM104.984 21.3281C104.339 20.8385 104.182 20.3438 104.516 19.8438L105.719 18.0312C106.115 17.4375 106.693 17.4062 107.453 17.9375C108.036 18.3438 108.797 18.7656 109.734 19.2031C110.682 19.6302 111.677 19.8438 112.719 19.8438C113.448 19.8438 114.151 19.7604 114.828 19.5938C115.505 19.4271 116.021 19.1042 116.375 18.625C116.729 18.1458 116.906 17.5781 116.906 16.9219C116.906 16.4531 116.828 16.0417 116.672 15.6875C116.516 15.3333 116.26 15.0417 115.906 14.8125C115.552 14.5833 115.188 14.3906 114.812 14.2344C114.156 13.9635 113.328 13.6979 112.328 13.4375C111.339 13.1667 110.359 12.8438 109.391 12.4688C108.526 12.1354 107.734 11.6771 107.016 11.0938C106.297 10.5104 105.74 9.85417 105.344 9.125C104.948 8.39583 104.75 7.42188 104.75 6.20312C104.75 4.75521 105.219 3.51562 106.156 2.48438C107.094 1.45312 108.172 0.791667 109.391 0.5C110.609 0.208333 111.839 0.0625 113.078 0.0625C114.307 0.0625 115.573 0.25 116.875 0.625C118.188 1 119.177 1.46875 119.844 2.03125C120.5 2.58333 120.661 3.08333 120.328 3.53125L119.062 5.23438C118.635 5.81771 118.062 5.86458 117.344 5.375C116.885 5.0625 116.255 4.71354 115.453 4.32812C114.661 3.94271 113.833 3.75 112.969 3.75C112.354 3.75 111.786 3.80208 111.266 3.90625C110.755 4.01042 110.302 4.26042 109.906 4.65625C109.51 5.05208 109.312 5.54167 109.312 6.125C109.312 6.6875 109.458 7.14583 109.75 7.5C110.042 7.84375 110.365 8.10417 110.719 8.28125C111.073 8.44792 111.432 8.58854 111.797 8.70312C112.922 9.06771 113.927 9.39062 114.812 9.67188C115.698 9.94271 116.516 10.2448 117.266 10.5781C118.307 11.0469 119.104 11.5156 119.656 11.9844C120.208 12.4531 120.661 13.0938 121.016 13.9062C121.38 14.7188 121.562 15.6875 121.562 16.8125C121.562 18.4792 121.031 19.8594 119.969 20.9531C118.906 22.0365 117.724 22.7344 116.422 23.0469C115.13 23.3698 113.87 23.5312 112.641 23.5312C110.828 23.5312 109.354 23.3542 108.219 23C107.083 22.6562 106.005 22.099 104.984 21.3281ZM126.25 23C125.521 23 125.156 22.6094 125.156 21.8281V1.76562C125.156 0.984375 125.521 0.59375 126.25 0.59375H139.656C140.438 0.59375 140.828 0.932292 140.828 1.60938V3.45312C140.828 4.13021 140.438 4.46875 139.656 4.46875H129.719V9.4375H138.828C139.609 9.4375 140 9.77604 140 10.4531V12.2969C140 12.974 139.609 13.3125 138.828 13.3125H129.719V19.125H140.156C140.938 19.125 141.328 19.4635 141.328 20.1406V21.9844C141.328 22.6615 140.938 23 140.156 23H126.25Z" fill="white"/>
</svg>
