<svg width="156" height="32" viewBox="0 0 156 32" fill="none" xmlns="http://www.w3.org/2000/svg">
<path d="M20.8652 0.369141L21.2695 1.00195C19.9219 1.20117 18.9141 1.59375 18.2461 2.17969C17.5781 2.75391 17.2441 3.60937 17.2441 4.74609C17.2441 5.36719 17.3086 6.26367 17.4375 7.43555C17.6719 9.45117 17.7891 11.0977 17.7891 12.375C17.7891 14.0977 17.4023 15.6094 16.6289 16.9102C15.8672 18.1992 14.0742 20.0508 11.25 22.4648C13.1016 21.8672 14.7656 21.5684 16.2422 21.5684C17.5898 21.5684 18.7969 21.7559 19.8633 22.1309C20.9414 22.4941 22.1367 23.1328 23.4492 24.0469L25.207 22.4648L25.7168 23.0801L21.1641 27C19.9219 26.0742 18.6797 25.4004 17.4375 24.9785C16.207 24.5449 14.7656 24.3281 13.1133 24.3281C11.5781 24.3281 10.1309 24.5098 8.77148 24.873C7.42383 25.2363 5.68359 25.9453 3.55078 27L3.19922 26.5078C5.32031 24.9375 6.72656 23.6836 7.41797 22.7461C8.10938 21.7969 8.45508 20.9062 8.45508 20.0742C8.45508 19.2773 8.20312 18.6152 7.69922 18.0879C7.19531 17.5488 6.61523 17.2793 5.95898 17.2793C5.63086 17.2793 5.25586 17.3789 4.83398 17.5781L4.30664 17.0684C4.74023 16.6816 5.13867 16.4121 5.50195 16.2598C5.86523 16.1074 6.28711 16.0312 6.76758 16.0312C7.04883 16.0312 7.33594 16.0723 7.62891 16.1543C7.92188 16.2246 8.21484 16.3418 8.50781 16.5059C8.53125 16.2363 8.54297 16.0195 8.54297 15.8555C8.54297 15.1055 8.26172 14.4551 7.69922 13.9043C7.13672 13.3535 6.44531 13.0781 5.625 13.0781C5.03906 13.0781 4.43555 13.3125 3.81445 13.7812L3.19922 13.3594C3.63281 12.7852 4.07812 12.3809 4.53516 12.1465C5.26172 11.7598 6.03516 11.5664 6.85547 11.5664C7.03125 11.5664 7.22461 11.584 7.43555 11.6191C7.64648 11.6426 7.86914 11.6836 8.10352 11.7422C8.0332 11.0273 7.99805 10.4297 7.99805 9.94922C7.99805 8.53125 8.20898 7.32422 8.63086 6.32812C9.06445 5.33203 9.80273 4.29492 10.8457 3.2168C9.7207 3.61523 8.76562 3.81445 7.98047 3.81445C7.20703 3.81445 6.22852 3.63281 5.04492 3.26953C4.50586 3.10547 4.07812 3.02344 3.76172 3.02344C3.15234 3.02344 2.63672 3.2168 2.21484 3.60352C1.80469 3.99023 1.59961 4.45312 1.59961 4.99219C1.59961 5.19141 1.65234 5.42578 1.75781 5.69531L1.00195 5.95898C0.873047 5.4082 0.808594 4.95117 0.808594 4.58789C0.808594 3.45117 1.24805 2.4668 2.12695 1.63477C3.00586 0.791016 4.06055 0.369141 5.29102 0.369141C5.85352 0.369141 6.7207 0.580078 7.89258 1.00195C9.07617 1.42383 9.99609 1.63477 10.6523 1.63477C11.8477 1.63477 12.9844 1.21289 14.0625 0.369141L14.5723 1.00195C13.4004 1.88086 12.5742 2.74805 12.0938 3.60352C11.625 4.45898 11.3906 5.49609 11.3906 6.71484C11.3906 7.61719 11.4492 8.66016 11.5664 9.84375C11.8008 12.0703 11.918 13.582 11.918 14.3789C11.918 16.0781 11.6426 17.6191 11.0918 19.002C10.541 20.373 9.54492 21.9609 8.10352 23.7656C10.2949 22.207 11.8652 20.6074 12.8145 18.9668C13.7754 17.3262 14.2559 15.4805 14.2559 13.4297C14.2559 12.2695 14.1738 10.998 14.0098 9.61523C13.8457 8.2207 13.7637 7.04883 13.7637 6.09961C13.7637 5.25586 13.9629 4.42383 14.3613 3.60352C14.7598 2.7832 15.2871 2.13867 15.9434 1.66992C16.5996 1.20117 17.3262 0.861328 18.123 0.650391C18.7207 0.498047 19.6348 0.404297 20.8652 0.369141ZM40.2188 10.8281V23.9766C38.4609 24.6914 37.1895 25.2773 36.4043 25.7344C35.8066 26.0742 35.2324 26.4961 34.6816 27C32.9824 25.9688 31.5762 25.2539 30.4629 24.8555C29.6191 24.5508 28.6641 24.375 27.5977 24.3281L27.4219 23.9766C27.8672 23.6016 28.1484 23.2617 28.2656 22.957C28.4297 22.5586 28.5117 21.8848 28.5117 20.9355V11.2852C30.6562 10.5703 32.4902 9.5625 34.0137 8.26172C35.6777 9.36328 37.7461 10.2188 40.2188 10.8281ZM32.0625 22.2715L36.6504 24.1523V12.9727C35.209 12.3047 34.1895 11.8652 33.5918 11.6543C33.1699 11.502 32.6602 11.373 32.0625 11.2676V22.2715ZM52.752 14.7832L56.8125 16.9102V24.3105C55.8281 24.4043 54.9375 24.6445 54.1406 25.0312C53.3438 25.418 52.4414 26.0742 51.4336 27C50.5664 26.4844 49.8105 26.127 49.166 25.9277C48.5332 25.7285 47.8594 25.6289 47.1445 25.6289C46.043 25.6289 45.0645 25.9629 44.209 26.6309C43.8926 26.877 43.6641 27 43.5234 27C43.3945 27 43.2656 26.9355 43.1367 26.8066C43.0078 26.6777 42.9434 26.5488 42.9434 26.4199C42.9434 26.2793 43.0664 26.0918 43.3125 25.8574C43.4531 25.7168 43.6934 25.4473 44.0332 25.0488L45.6328 23.0625L47.9004 20.0566L44.0508 17.9824V11.4258C45.2578 11.0508 46.2012 10.6348 46.8809 10.1777C47.5723 9.70898 48.2344 9.07031 48.8672 8.26172C50.3672 8.89453 51.5742 9.33984 52.4883 9.59766C53.1445 9.77344 53.7715 9.86133 54.3691 9.86133C55.0254 9.86133 55.5352 9.7207 55.8984 9.43945C56.2617 9.14648 56.4434 8.8418 56.4434 8.52539C56.4434 8.31445 56.3262 8.10352 56.0918 7.89258C55.6348 7.48242 55.4062 7.08398 55.4062 6.69727C55.4062 6.33398 55.5059 6.04688 55.7051 5.83594C55.9043 5.61328 56.127 5.50195 56.373 5.50195C56.7012 5.50195 56.9941 5.6543 57.252 5.95898C57.5215 6.25195 57.6562 6.64453 57.6562 7.13672C57.6562 7.64063 57.5508 8.13281 57.3398 8.61328C57.1289 9.09375 56.7246 9.71484 56.127 10.4766L52.752 14.7832ZM47.6016 15.9961L50.0098 17.2441L53.8418 12.1465C53.0566 12.3691 52.377 12.4805 51.8027 12.4805C50.3613 12.4805 48.9609 12 47.6016 11.0391V15.9961ZM50.625 17.5957L46.3887 23.2734C46.9043 23.0977 47.3848 22.9688 47.8301 22.8867C48.2754 22.8047 48.6797 22.7637 49.043 22.7637C50.3906 22.7637 51.791 23.209 53.2441 24.0996V19.002L50.625 17.5957ZM59.4316 10.1953L64.3359 4.13086H64.8457L64.6699 8.98242H68.2031V10.9688H64.6699V22.7988L66.6387 24.2578L67.7637 23.3789L68.2031 23.9062L64.3359 27C63.0117 25.6523 61.5117 24.7383 59.8359 24.2578V23.9062C60.3047 23.5898 60.6152 23.2617 60.7676 22.9219C60.9668 22.4883 61.0664 21.8613 61.0664 21.041V10.9688H59.4316V10.1953ZM101.654 0.369141C102.873 0.697266 103.793 1.17773 104.414 1.81055C105.293 2.70117 105.732 3.72656 105.732 4.88672C105.732 5.83594 105.387 6.82031 104.695 7.83984C104.016 8.84766 102.756 10.0488 100.916 11.4434C102.486 11.584 103.635 11.8418 104.361 12.2168C105.1 12.5918 105.615 13.0723 105.908 13.6582C106.201 14.2441 106.348 15.2227 106.348 16.5938V22.6406C102.176 23.1094 98.6191 24.5625 95.6777 27C94.6582 26.2969 93.6914 25.7988 92.7773 25.5059C91.3008 25.0137 89.7188 24.7676 88.0312 24.7676C85.957 24.7676 84.293 25.1895 83.0391 26.0332C82.1953 26.5957 81.7734 27.1582 81.7734 27.7207C81.7734 27.9316 81.8906 28.2422 82.125 28.6523C82.3711 29.0742 82.4941 29.4082 82.4941 29.6543C82.4941 29.8887 82.4062 30.0938 82.2305 30.2695C82.0547 30.4453 81.8613 30.5332 81.6504 30.5332C81.3223 30.5332 81.0234 30.375 80.7539 30.0586C80.4961 29.7539 80.3672 29.3555 80.3672 28.8633C80.3672 28.4062 80.5254 27.8848 80.8418 27.2988C81.1699 26.7246 81.8672 25.8926 82.9336 24.8027C84.0117 23.7129 84.6973 22.916 84.9902 22.4121C85.2949 21.9082 85.4473 21.4395 85.4473 21.0059C85.4473 20.4902 85.2715 20.0684 84.9199 19.7402C84.5801 19.4004 84.1465 19.2305 83.6191 19.2305C83.1387 19.2305 82.7461 19.3652 82.4414 19.6348C82.1367 19.9043 81.9316 20.3496 81.8262 20.9707H81.1934C81.1816 20.748 81.1758 20.584 81.1758 20.4785C81.1758 19.4941 81.5039 18.6855 82.1602 18.0527C82.8281 17.4199 83.7129 17.1035 84.8145 17.1035C84.9434 17.1035 85.1426 17.1094 85.4121 17.1211C85.4004 15.9727 85.2305 15.1406 84.9023 14.625C84.3867 13.793 83.6016 13.377 82.5469 13.377C81.8906 13.377 81.3105 13.5469 80.8066 13.8867C80.5371 14.0625 80.2676 14.4258 79.998 14.9766L79.3301 14.748C79.4473 13.623 79.8809 12.7266 80.6309 12.0586C81.3926 11.3906 82.3594 11.0566 83.5312 11.0566C83.9648 11.0566 84.5039 11.0918 85.1484 11.1621C85.1953 9.50977 85.3477 8.30859 85.6055 7.55859C85.8633 6.79688 86.2969 6.10547 86.9062 5.48438C87.5156 4.85156 88.6699 3.97852 90.3691 2.86523C88.7637 3.39258 87.4043 3.65625 86.291 3.65625C85.5762 3.65625 84.6387 3.51562 83.4785 3.23438C82.8105 3.08203 82.3359 3.00586 82.0547 3.00586C81.5273 3.00586 81.082 3.1875 80.7188 3.55078C80.3555 3.90234 80.1152 4.53516 79.998 5.44922H79.3301C79.3652 4.38281 79.5586 3.49219 79.9102 2.77734C80.2734 2.05078 80.8242 1.4707 81.5625 1.03711C82.3008 0.591797 83.0801 0.369141 83.9004 0.369141C84.5098 0.369141 85.5234 0.544922 86.9414 0.896484C88.3594 1.24805 89.5078 1.42383 90.3867 1.42383C91.0312 1.42383 91.6523 1.35352 92.25 1.21289C92.8594 1.07227 93.6562 0.791016 94.6406 0.369141L94.9922 1.125C92.4609 2.35547 90.7734 3.55664 89.9297 4.72852C89.0977 5.88867 88.6816 7.43555 88.6816 9.36914V16.5938C88.6816 18.1758 88.5059 19.4062 88.1543 20.2852C87.8027 21.1641 87.0938 22.166 86.0273 23.291C88.1016 22.4121 89.4961 21.4688 90.2109 20.4609C90.9258 19.4531 91.2832 17.9707 91.2832 16.0137V10.8281C91.2832 8.41406 91.4941 6.71484 91.916 5.73047C92.3379 4.73437 93.1113 3.88477 94.2363 3.18164C95.373 2.4668 97.8457 1.5293 101.654 0.369141ZM98.6133 2.07422C97.3477 2.64844 96.4922 3.13477 96.0469 3.5332C95.6133 3.93164 95.3086 4.40625 95.1328 4.95703C94.9688 5.49609 94.8867 6.41602 94.8867 7.7168V14.9238C94.8867 16.2129 94.7695 17.1855 94.5352 17.8418C94.3008 18.4863 93.8496 19.125 93.1816 19.7578C92.5137 20.3789 91.1602 21.2871 89.1211 22.4824C90.2227 22.3184 91.248 22.2363 92.1973 22.2363C93.8145 22.2363 95.3438 22.459 96.7852 22.9043V8.26172H97.5586V12.832C99.1758 11.8594 100.371 10.8633 101.145 9.84375C101.918 8.8125 102.305 7.69922 102.305 6.50391C102.305 5.51953 102 4.67578 101.391 3.97266C100.793 3.25781 99.8672 2.625 98.6133 2.07422ZM97.5586 15.3633C98.5195 15.7031 99.3867 15.873 100.16 15.873C100.934 15.873 101.801 15.7031 102.762 15.3633C102.762 14.5547 102.58 13.9043 102.217 13.4121C101.854 12.9199 101.168 12.457 100.16 12.0234C98.8828 12.8672 98.0156 13.4121 97.5586 13.6582V15.3633ZM102.762 16.1367C101.777 16.4766 100.91 16.6465 100.16 16.6465C99.3516 16.6465 98.4844 16.4766 97.5586 16.1367V19.2656C98.4609 18.9375 99.3047 18.7734 100.09 18.7734C100.852 18.7734 101.742 18.9375 102.762 19.2656V16.1367ZM102.762 20.0742C101.684 19.6875 100.77 19.4941 100.02 19.4941C99.2344 19.4941 98.4141 19.6875 97.5586 20.0742V23.2031C98.0625 23.4258 98.5371 23.6777 98.9824 23.959C100.178 23.3379 101.438 22.8516 102.762 22.5V20.0742ZM122.344 10.8281V23.9766C120.586 24.6914 119.314 25.2773 118.529 25.7344C117.932 26.0742 117.357 26.4961 116.807 27C115.107 25.9688 113.701 25.2539 112.588 24.8555C111.744 24.5508 110.789 24.375 109.723 24.3281L109.547 23.9766C109.992 23.6016 110.273 23.2617 110.391 22.957C110.555 22.5586 110.637 21.8848 110.637 20.9355V11.2852C112.781 10.5703 114.615 9.5625 116.139 8.26172C117.803 9.36328 119.871 10.2188 122.344 10.8281ZM114.188 22.2715L118.775 24.1523V12.9727C117.334 12.3047 116.314 11.8652 115.717 11.6543C115.295 11.502 114.785 11.373 114.188 11.2676V22.2715ZM125.473 11.3379L129.164 8.26172C130.172 8.94141 130.822 9.5332 131.115 10.0371C131.42 10.541 131.572 11.2324 131.572 12.1113V12.498L136.898 8.26172C138.715 10.1719 139.623 12.2168 139.623 14.3965C139.623 15.5684 139.324 16.7402 138.727 17.9121C138.129 19.0723 137.191 20.1797 135.914 21.2344C134.637 22.2773 132.574 23.6484 129.727 25.3477C128.484 26.0977 127.74 26.5723 127.494 26.7715C126.967 27.1816 126.592 27.5801 126.369 27.9668C126.205 28.248 126.123 28.5645 126.123 28.916C126.123 29.5137 126.416 30.0645 127.002 30.5684C127.6 31.084 128.385 31.3418 129.357 31.3418C130.061 31.3418 130.641 31.2188 131.098 30.9727C131.32 30.8555 131.537 30.6035 131.748 30.2168C131.959 29.8418 132.141 29.5957 132.293 29.4785C132.445 29.3613 132.627 29.3027 132.838 29.3027C133.072 29.3027 133.26 29.3672 133.4 29.4961C133.541 29.625 133.611 29.7949 133.611 30.0059C133.611 30.3809 133.336 30.75 132.785 31.1133C131.941 31.6992 130.875 31.9922 129.586 31.9922C128.238 31.9922 127.201 31.6699 126.475 31.0254C125.748 30.3926 125.385 29.6367 125.385 28.7578C125.385 27.8906 125.789 27.0469 126.598 26.2266C126.984 25.8281 127.225 25.5469 127.318 25.3828C127.576 24.9375 127.752 24.5273 127.846 24.1523C127.939 23.7656 127.986 23.2266 127.986 22.5352V14.1328C127.986 12.9609 127.852 12.1641 127.582 11.7422C127.371 11.4141 127.143 11.25 126.896 11.25C126.697 11.25 126.439 11.4023 126.123 11.707C126.076 11.7539 126 11.8242 125.895 11.918L125.473 11.3379ZM131.572 13.3066V23.291C133.225 22.0957 134.396 20.8535 135.088 19.5645C135.791 18.2637 136.143 17.0273 136.143 15.8555C136.143 14.2734 135.498 12.7266 134.209 11.2148L131.572 13.3066ZM151.014 14.7832L155.074 16.9102V24.3105C154.09 24.4043 153.199 24.6445 152.402 25.0312C151.605 25.418 150.703 26.0742 149.695 27C148.828 26.4844 148.072 26.127 147.428 25.9277C146.795 25.7285 146.121 25.6289 145.406 25.6289C144.305 25.6289 143.326 25.9629 142.471 26.6309C142.154 26.877 141.926 27 141.785 27C141.656 27 141.527 26.9355 141.398 26.8066C141.27 26.6777 141.205 26.5488 141.205 26.4199C141.205 26.2793 141.328 26.0918 141.574 25.8574C141.715 25.7168 141.955 25.4473 142.295 25.0488L143.895 23.0625L146.162 20.0566L142.312 17.9824V11.4258C143.52 11.0508 144.463 10.6348 145.143 10.1777C145.834 9.70898 146.496 9.07031 147.129 8.26172C148.629 8.89453 149.836 9.33984 150.75 9.59766C151.406 9.77344 152.033 9.86133 152.631 9.86133C153.287 9.86133 153.797 9.7207 154.16 9.43945C154.523 9.14648 154.705 8.8418 154.705 8.52539C154.705 8.31445 154.588 8.10352 154.354 7.89258C153.896 7.48242 153.668 7.08398 153.668 6.69727C153.668 6.33398 153.768 6.04688 153.967 5.83594C154.166 5.61328 154.389 5.50195 154.635 5.50195C154.963 5.50195 155.256 5.6543 155.514 5.95898C155.783 6.25195 155.918 6.64453 155.918 7.13672C155.918 7.64063 155.812 8.13281 155.602 8.61328C155.391 9.09375 154.986 9.71484 154.389 10.4766L151.014 14.7832ZM145.863 15.9961L148.271 17.2441L152.104 12.1465C151.318 12.3691 150.639 12.4805 150.064 12.4805C148.623 12.4805 147.223 12 145.863 11.0391V15.9961ZM148.887 17.5957L144.65 23.2734C145.166 23.0977 145.646 22.9688 146.092 22.8867C146.537 22.8047 146.941 22.7637 147.305 22.7637C148.652 22.7637 150.053 23.209 151.506 24.0996V19.002L148.887 17.5957Z" fill="white"/>
</svg>
