<svg width="175" height="56" viewBox="0 0 175 56" fill="none" xmlns="http://www.w3.org/2000/svg">
<path fill-rule="evenodd" clip-rule="evenodd" d="M75.5245 21.0001V16.1001H62.1843C60.7282 16.1257 59.7595 17.1313 59.7588 18.5501C59.7595 18.3895 59.7588 21.0034 59.7588 21.0001H64.6098V39.9876H70.6735V21.0001H75.5245Z" fill="white"/>
<path fill-rule="evenodd" clip-rule="evenodd" d="M47.6308 16.1001C47.6308 16.1061 41.1015 16.1001 40.9607 16.1001C39.9468 16.1001 38.9758 16.7905 38.5352 17.9376L34.2907 27.1251V16.1001H28.227C27.0816 16.1001 26.1106 16.7905 25.8015 17.9376L16.0996 39.9876H22.7696L29.4397 25.2876V39.9876H34.897L41.5671 25.2876V39.9876H47.6308V16.1001Z" fill="white"/>
<path fill-rule="evenodd" clip-rule="evenodd" d="M57.9396 16.1001C57.9396 16.1048 54.1517 16.1001 54.3014 16.1001C52.8917 16.1001 51.884 17.1147 51.876 18.5501V39.9876H57.9396V16.1001Z" fill="white"/>
<path fill-rule="evenodd" clip-rule="evenodd" d="M105.843 34.4751V30.1876H112.513V25.2876H105.843V21.0001H113.119V16.1001H102.205C100.809 16.1001 99.8027 17.0897 99.7793 18.5501V39.9876H113.119V34.4751H105.843Z" fill="white"/>
<path fill-rule="evenodd" clip-rule="evenodd" d="M89.3408 23.7113C89.3408 26.2714 87.1594 26.6473 85.1997 26.6479C85.1885 26.6473 85.1793 26.6412 85.1688 26.6412C84.8616 26.6412 84.6123 26.8965 84.6123 27.2112L84.6156 20.7768H85.1991C87.1587 20.7768 89.3408 21.1534 89.3408 23.7113ZM84.6123 27.2159V27.2112C84.6123 27.2126 84.6123 27.2139 84.6123 27.2159ZM87.6115 16.1001H80.83C79.5637 16.1001 78.5557 17.1093 78.5557 18.3545V39.9876H84.6635L84.6022 30.4206H84.6655L90.4364 39.9876H97.9596L90.5948 29.8307C93.8811 29.2447 95.6766 26.4757 95.6766 23.2587C95.6766 18.2892 92.202 16.1001 87.6115 16.1001Z" fill="white"/>
<path fill-rule="evenodd" clip-rule="evenodd" d="M131.917 39.9876V16.1001H124.64C123.2 16.1001 122.215 17.12 122.215 18.5501V21.0001H125.853V39.9876H131.917Z" fill="#FF6D00"/>
<path fill-rule="evenodd" clip-rule="evenodd" d="M153.695 18.9962C154.141 18.9962 154.554 19.1337 154.902 19.3641C152.737 17.345 149.846 16.1001 146.658 16.1001C139.96 16.1001 134.53 21.5529 134.53 28.2797C134.53 30.9219 135.377 33.3599 136.802 35.3554L141.106 30.9508C140.726 30.133 140.507 29.2208 140.507 28.2547C140.507 24.7765 143.261 21.9571 146.657 21.9571C147.601 21.9571 148.491 22.1808 149.29 22.5695L152.181 19.5985L152.189 19.6066C152.586 19.2307 153.113 18.9962 153.695 18.9962ZM156.666 21.4397L152.347 25.8692C152.642 26.6056 152.807 27.41 152.807 28.2548C152.807 31.733 150.053 34.5524 146.657 34.5524C145.832 34.5524 145.046 34.3826 144.327 34.0815L141.311 37.1764C140.912 37.5261 140.4 37.7497 139.834 37.7497C139.38 37.7497 138.959 37.6089 138.607 37.3711C140.749 39.2857 143.564 40.4593 146.658 40.4593C153.356 40.4593 158.786 35.0065 158.786 28.2797C158.786 25.7379 157.995 23.3901 156.666 21.4397Z" fill="#FF6D00"/>
</svg>
