<svg width="175" height="56" viewBox="0 0 175 56" fill="none" xmlns="http://www.w3.org/2000/svg">
<path fill-rule="evenodd" clip-rule="evenodd" d="M75.5255 21.0001V16.1001H62.1853C60.7292 16.1257 59.7605 17.1313 59.7598 18.5501C59.7605 18.3895 59.7598 21.0034 59.7598 21.0001H64.6108V39.9876H70.6745V21.0001H75.5255Z" fill="white"/>
<path fill-rule="evenodd" clip-rule="evenodd" d="M47.6308 16.1001C47.6308 16.1061 41.1015 16.1001 40.9607 16.1001C39.9468 16.1001 38.9758 16.7905 38.5352 17.9376L34.2907 27.1251V16.1001H28.227C27.0816 16.1001 26.1106 16.7905 25.8015 17.9376L16.0996 39.9876H22.7696L29.4397 25.2876V39.9876H34.897L41.5671 25.2876V39.9876H47.6308V16.1001Z" fill="white"/>
<path fill-rule="evenodd" clip-rule="evenodd" d="M57.9406 16.1001C57.9406 16.1048 54.1527 16.1001 54.3024 16.1001C52.8927 16.1001 51.885 17.1147 51.877 18.5501V39.9876H57.9406V16.1001Z" fill="white"/>
<path fill-rule="evenodd" clip-rule="evenodd" d="M105.843 34.4751V30.1876H112.513V25.2876H105.843V21.0001H113.119V16.1001H102.205C100.809 16.1001 99.8027 17.0897 99.7793 18.5501V39.9876H113.119V34.4751H105.843Z" fill="white"/>
<path fill-rule="evenodd" clip-rule="evenodd" d="M89.3417 23.7113C89.3417 26.2714 87.1603 26.6473 85.2006 26.6479C85.1894 26.6473 85.1802 26.6412 85.1697 26.6412C84.8625 26.6412 84.6132 26.8965 84.6132 27.2112L84.6165 20.7768H85.2C87.1596 20.7768 89.3417 21.1534 89.3417 23.7113ZM84.6132 27.2159V27.2112C84.6132 27.2126 84.6132 27.2139 84.6132 27.2159ZM87.6124 16.1001H80.8309C79.5646 16.1001 78.5566 17.1093 78.5566 18.3545V39.9876H84.6644L84.6031 30.4206H84.6664L90.4373 39.9876H97.9605L90.5957 29.8307C93.882 29.2447 95.6775 26.4757 95.6775 23.2587C95.6775 18.2892 92.2029 16.1001 87.6124 16.1001Z" fill="white"/>
<path fill-rule="evenodd" clip-rule="evenodd" d="M131.917 39.9876V16.1001H124.64C123.2 16.1001 122.215 17.12 122.215 18.5501V21.0001H125.853V39.9876H131.917Z" fill="white"/>
<path fill-rule="evenodd" clip-rule="evenodd" d="M153.694 18.9962C154.14 18.9962 154.553 19.1337 154.901 19.3641C152.736 17.345 149.845 16.1001 146.657 16.1001C139.959 16.1001 134.529 21.5529 134.529 28.2797C134.529 30.9219 135.376 33.3599 136.801 35.3554L141.105 30.9508C140.725 30.133 140.506 29.2208 140.506 28.2547C140.506 24.7765 143.26 21.9571 146.656 21.9571C147.6 21.9571 148.49 22.1808 149.289 22.5695L152.18 19.5985L152.188 19.6066C152.585 19.2307 153.112 18.9962 153.694 18.9962ZM156.665 21.4397L152.346 25.8692C152.641 26.6056 152.806 27.41 152.806 28.2548C152.806 31.733 150.052 34.5524 146.656 34.5524C145.831 34.5524 145.045 34.3826 144.326 34.0815L141.31 37.1764C140.911 37.5261 140.399 37.7497 139.833 37.7497C139.379 37.7497 138.958 37.6089 138.606 37.3711C140.748 39.2857 143.563 40.4593 146.657 40.4593C153.355 40.4593 158.785 35.0065 158.785 28.2797C158.785 25.7379 157.994 23.3901 156.665 21.4397Z" fill="white"/>
</svg>
