<svg width="168" height="34" viewBox="0 0 168 34" fill="none" xmlns="http://www.w3.org/2000/svg">
<path fill-rule="evenodd" clip-rule="evenodd" d="M103.674 16.365L96 33.115L99.5 33.115L103.5 33.115L106.5 29.115C107.5 29.115 108.221 29.115 110.622 29.115C113.053 29.115 115 29.115 115.5 29.115C115.5 29.615 115.5 32.3848 115.5 33.115C116 33.115 116.167 33.115 125.5 33.115H135.5V30.115V27.115H129.5H123.5V23.615V20.115H129.5H135.5V17.115V14.115H129.5H123.5V10.115V6.115H129.5H135.5V3.115V0.115H123.484H111.468L103.674 16.365ZM115.5 23.115V15.615C115.5 11.49 115.5 8.11499 115.5 8.11499C115.227 8.11499 111.169 16.672 108.5 23.115C108.5 23.115 109.946 23.115 111.917 23.115H115.5Z" fill="white"/>
<path d="M56.5 16.615V33.115H60H63.5V23.448V14.115L71.5 33.115L74.259 33.115H77L84.5 13.115L84.429 23.365L84.5 33.115H88H91.5V16.558V0L87 0.11499L83 0.115L78.805 11.115C76.498 16.89 74.193 22.126 74 22.615C73.5 21.615 71.967 18.155 69.594 11.754L65.281 0.115H60.891H56.5V16.615Z" fill="white"/>
<path fill-rule="evenodd" clip-rule="evenodd" d="M142.5 16.615V33.115H146.5H150.5V28.615V24.115H153C153.57 24.5314 154.375 25.5568 155.222 26.6343C155.762 27.3224 156.319 28.0316 156.842 28.617C159.698 31.8133 159.978 32.2706 160.315 32.8193C160.371 32.9109 160.428 33.0051 160.5 33.115L167.5 33.115C167.5 32.693 165.781 30.139 164.406 28.115C163.765 27.1712 163.186 26.3608 162.688 25.664C161.895 24.5524 161.307 23.7296 161 23.115C162.787 22.331 163.468 21.7456 164.5 20.615C166 18.9706 167.5 15.615 167 11.115C166.259 4.45409 161.158 0.115 149.935 0.115H142.5V16.615ZM158.929 16.544C161.05 14.422 160.915 9.8 158.671 7.77C157.665 6.86 155.415 6.115 153.671 6.115H150.5V12.115V18.115H153.929C155.814 18.115 158.064 17.408 158.929 16.544Z" fill="white"/>
<path fill-rule="evenodd" clip-rule="evenodd" d="M29.5 16.615V33.115H39.5H49.5V30.115V27.115H43.5H37.5V23.615V20.115H43.5H49.5V17.115V14.115H43.5H37.5V10.115V6.115H43.5H49.5V3.115V0.115H39.5H29.5V16.615Z" fill="white"/>
<path fill-rule="evenodd" clip-rule="evenodd" d="M0 16.615V33.115H4H8V28.615V24.115H10.5C11.07 24.5314 11.8754 25.5568 12.7216 26.6343C13.262 27.3224 13.819 28.0316 14.342 28.617C17.1978 31.8133 17.4782 32.2706 17.8146 32.8193C17.8707 32.9109 17.9285 33.0051 18 33.115L25 33.115C25 32.693 23.281 30.139 21.906 28.115C21.2646 27.1712 20.686 26.3608 20.1884 25.664C19.3948 24.5524 18.8073 23.7296 18.5 23.115C20.2872 22.331 20.9683 21.7456 21.9996 20.615C23.4996 18.9706 25 15.615 24.4996 11.115C23.759 4.45408 18.658 0.11499 7.435 0.11499H0V16.615ZM16.429 16.544C18.55 14.422 18.415 9.79999 16.171 7.76999C15.165 6.85999 12.915 6.11499 11.171 6.11499H8V12.115V18.115H11.429C13.314 18.115 15.564 17.408 16.429 16.544Z" fill="white"/>
</svg>
