<svg width="174" height="11" viewBox="0 0 174 11" fill="none" xmlns="http://www.w3.org/2000/svg">
<path d="M18.2447 0.603144C13.6281 3.01067 14.0478 8.99606 18.8043 10.5008C21.3225 11.2698 23.0013 11.1695 24.9599 10.0661C28.1076 8.26043 29.017 4.34819 26.7087 2.17473C24.4703 0.101575 20.5531 -0.63406 18.2447 0.603144ZM23.8407 1.87379C25.5195 3.11099 25.4496 7.95949 23.7708 9.16325C20.8329 11.3367 17.7551 9.39732 17.7551 5.35133C17.7551 1.53941 20.9028 -0.266242 23.8407 1.87379Z" fill="white"/>
<path d="M35.1279 1.25638C33.5331 2.2906 33.2009 2.85776 33.068 5.0263C32.8687 7.12811 33.068 7.82871 34.1976 8.96303C36.3239 11.0315 38.8489 11.5319 41.4403 10.431C42.9685 9.76372 44.3639 8.22906 43.7659 7.89544C43.035 7.52846 42.2376 7.69527 42.2376 8.1957C42.2376 8.8963 39.7791 10.064 38.716 9.83044C36.8555 9.49682 35.3272 7.59518 35.3272 5.52673C35.3936 1.52327 40.0449 -0.411729 42.3041 2.65759C42.7692 3.22474 43.1679 3.35819 43.633 3.12466C44.1646 2.85776 44.0981 2.52414 43.5665 1.99034C41.108 -0.378366 38.0515 -0.645264 35.1279 1.25638Z" fill="white"/>
<path d="M66.3865 0.358187C64.1953 0.993656 63.0664 2.69939 63 5.3416C63 7.91693 63.5976 8.88685 66.1209 10.2581C70.7691 12.8669 76.679 8.1176 74.5541 3.4352C73.2925 0.592306 69.9723 -0.678632 66.3865 0.358187ZM71.6324 2.49871C73.6909 5.27471 71.9644 10.024 68.9099 10.024C66.7186 10.024 65.5897 8.35172 65.6561 5.3416C65.7225 2.23115 66.5858 0.993656 68.8435 0.993656C70.1715 0.993656 70.7027 1.29467 71.6324 2.49871Z" fill="white"/>
<path d="M84.0603 0.727265C83.4639 1.12852 83 2.0982 83 2.86726C83 4.07101 83.4639 4.57257 85.9821 6.04382C89.0306 7.84945 89.6933 8.98632 87.9702 9.68851C86.7774 10.1901 85.7171 9.8557 84.6567 8.55163C83.9278 7.7157 83.6627 7.61538 83.3313 8.08351C82.6024 9.0532 83.9278 10.491 85.9159 10.8588C87.5726 11.1263 87.9702 11.0594 89.3619 10.2569C92.2115 8.58507 91.2837 6.21101 87.0425 4.20476C84.9881 3.20164 84.5242 2.23195 85.6508 1.32914C86.5123 0.660391 88.5667 1.2957 88.8318 2.29883C88.9643 2.70008 89.4282 2.96758 89.8258 2.9007C90.8199 2.73351 90.4885 1.76383 89.2294 0.727265C87.9702 -0.242421 85.3857 -0.242421 84.0603 0.727265Z" fill="white"/>
<path d="M116.034 0.58187C113.054 2.25611 112.083 6.20733 113.961 8.55128C115.775 10.7948 119.466 11.6319 122.575 10.4934C123.806 10.0581 124 9.68976 124 7.47976V4.96839L121.927 5.06885C119.661 5.1693 118.56 6.00642 120.697 6.00642C121.863 6.00642 122.057 6.20733 122.057 7.64718C122.057 9.42188 120.956 10.2255 118.883 9.85719C114.868 9.22097 114.35 2.39005 118.3 1.28505C119.725 0.883234 121.733 1.58642 122.446 2.7249C122.705 3.16021 123.028 3.29415 123.482 3.05975C124.194 2.69142 123.352 1.6199 121.539 0.548386C120.243 -0.188283 117.394 -0.188283 116.034 0.58187Z" fill="white"/>
<path d="M167.227 2.97775C164.138 9.44664 163.571 10.9869 164.264 10.8499C164.642 10.7815 165.273 10.0627 165.651 9.20705C166.281 7.80375 166.47 7.70106 168.613 7.59838C170.82 7.4957 170.883 7.4957 171.261 9.07014C171.702 10.5077 172.963 11.3633 173.971 10.8499C174.413 10.6104 169.622 0 169.055 0C168.803 0 167.983 1.33485 167.227 2.97775ZM169.118 4.07301C169.118 4.24414 169.307 4.86023 169.496 5.44209C169.874 6.36621 169.748 6.50312 168.487 6.50312C167.353 6.50312 167.164 6.36621 167.479 5.7159C167.668 5.30518 167.857 4.68909 167.857 4.34682C167.857 4.03878 168.172 3.76496 168.487 3.76496C168.866 3.76496 169.118 3.90187 169.118 4.07301Z" fill="white"/>
<path d="M0 5.5C0 10.7516 0.0719874 11 1.43975 11C2.73552 11 2.87949 10.7516 2.87949 8.44516C2.87949 7.06129 3.09546 6.03226 3.38341 6.17419C3.67136 6.31613 4.75117 7.41613 5.75899 8.62258C6.8388 9.86452 8.20656 10.8581 8.85445 10.929C10.5821 11.1065 10.3662 10.3258 8.13457 7.80645C6.40688 5.81936 6.33489 5.57097 7.4147 5.2871C9.1424 4.79032 9.64631 2.80323 8.35053 1.3129C7.34271 0.0354843 7.12675 0 3.67136 0H0V5.5ZM6.19091 1.9871C6.8388 3.19355 5.687 4.75484 4.10328 4.89677C3.09546 5.00323 2.87949 4.71936 2.87949 3.05161C2.87949 1.3129 3.02347 1.06452 4.31924 1.06452C5.25508 1.06452 5.90296 1.38387 6.19091 1.9871Z" fill="white"/>
<path d="M52 5.5C52 10.1484 52.2 11 53.5 11C54.8 11 55 10.1484 55 5.5C55 0.851613 54.8 0 53.5 0C52.2 0 52 0.851613 52 5.5Z" fill="white"/>
<path d="M99 5.5V11H103C106.133 11 107 10.8935 107 10.4677C107 10.0774 106.2 9.93548 104 9.93548H101V7.62903V5.32258H103C104.133 5.32258 105 5.14516 105 4.96774C105 4.75484 104.133 4.6129 103 4.6129C101.067 4.6129 101 4.57742 101 2.83871V1.06452H104C106.2 1.06452 107 0.922581 107 0.532258C107 0.106452 106.133 0 103 0H99V5.5Z" fill="white"/>
<path d="M132 4.28859C132 8.16216 132.134 8.64635 133.542 9.7185C135.486 11.2403 137.833 11.4132 140.045 10.2027C141.654 9.33806 141.721 9.02679 141.922 4.63445C142.123 1.48717 141.922 0 141.453 0C140.984 0 140.716 1.38342 140.716 3.97732C140.716 9.26889 138.972 11.2057 135.821 9.40723C134.883 8.88845 134.682 7.98923 134.682 4.39235C134.682 0.242098 134.615 0 133.341 0C132.067 0 132 0.242098 132 4.28859Z" fill="white"/>
<path d="M150 5.48232C150 10.1511 150.123 11 150.924 11C151.663 11 151.848 10.4695 151.848 8.45338C151.848 5.58842 152.217 5.62379 154.373 8.66559C155.79 10.6463 156.652 11.2122 157.884 10.9293C158.254 10.8939 157.699 9.72669 156.776 8.41801L155.112 6.01286L156.344 4.5627C157.515 3.25402 157.515 3.00643 156.714 1.66238C155.913 0.247588 155.728 0.212218 152.957 0.106109L150 0V5.48232ZM154.435 1.98071C155.297 3.11254 154.435 4.73955 152.895 4.9164C152.033 5.02251 151.848 4.73955 151.848 3.07717C151.848 1.55627 152.033 1.09646 152.772 1.09646C153.326 1.09646 154.065 1.48553 154.435 1.98071Z" fill="white"/>
</svg>
