<svg width="82" height="42" viewBox="0 0 82 42" fill="none" xmlns="http://www.w3.org/2000/svg">
<path d="M34 25C34 27.2326 33.5602 29.4431 32.706 31.5059C31.8516 33.5683 30.5993 35.4422 29.0207 37.0208C27.4421 38.5993 25.5681 39.8518 23.5056 40.7061C21.4431 41.5602 19.2325 42 17 42C14.7675 42 12.5569 41.5602 10.4944 40.7061C8.43185 39.8518 6.55778 38.5993 4.97918 37.0208C3.40057 35.4422 2.14837 33.5683 1.29405 31.5059C0.439717 29.4431 -1.95168e-07 27.2326 0 25H10.2055C10.2055 25.8922 10.3813 26.7757 10.7227 27.5999C11.0642 28.4244 11.5647 29.1735 12.1956 29.8046C12.8265 30.4353 13.5755 30.9356 14.3999 31.2773C15.2242 31.6187 16.1077 31.7944 17 31.7944C17.8923 31.7944 18.7758 31.6187 19.6001 31.2773C20.4244 30.9356 21.1735 30.4353 21.8044 29.8046C22.4353 29.1735 22.9357 28.4244 23.2772 27.5999C23.6187 26.7757 23.7944 25.8922 23.7944 25H34Z" fill="white"/>
<path d="M24 17C24 14.7675 24.4397 12.5569 25.2941 10.4944C26.1484 8.43195 27.4006 6.55777 28.9792 4.97917C30.5578 3.40058 32.4319 2.14858 34.4942 1.29397C36.5567 0.439717 38.7673 0 41 0C43.2324 0 45.4429 0.439717 47.5055 1.29397C49.568 2.14858 51.4422 3.40058 53.0207 4.97917C54.5993 6.55777 55.8513 8.43195 56.7055 10.4944C57.5602 12.5569 58 14.7675 58 17H47.7942C47.7942 16.1078 47.6186 15.224 47.277 14.3997C46.9354 13.5753 46.4354 12.8265 45.8042 12.1956C45.1733 11.5647 44.4241 11.064 43.5999 10.7228C42.7757 10.3813 41.8921 10.2054 41 10.2054C40.1076 10.2054 39.2243 10.3813 38.4001 10.7228C37.5756 11.064 36.8264 11.5647 36.1955 12.1956C35.5646 12.8265 35.0643 13.5753 34.7227 14.3997C34.3813 15.224 34.2055 16.1078 34.2055 17H24Z" fill="white"/>
<path d="M82 25C82 27.2326 81.5605 29.4431 80.706 31.5059C79.8518 33.5683 78.5998 35.4422 77.0212 37.0208C75.4426 38.5993 73.5684 39.8518 71.5059 40.7061C69.4433 41.5602 67.2327 42 65.0003 42C62.7676 42 60.557 41.5602 58.4947 40.7061C56.4321 39.8518 54.5579 38.5993 52.9793 37.0208C51.4007 35.4422 50.1487 33.5683 49.294 31.5059C48.4398 29.4431 48 27.2326 48 25H58.2054C58.2054 25.8922 58.3815 26.7757 58.7229 27.5999C59.0642 28.4244 59.5648 29.1735 60.1957 29.8046C60.8266 30.4353 61.5756 30.9356 62.3998 31.2773C63.2245 31.6187 64.1079 31.7944 65.0003 31.7944C65.8924 31.7944 66.776 31.6187 67.6002 31.2773C68.4247 30.9356 69.1737 30.4353 69.8046 29.8046C70.4357 29.1735 70.936 28.4244 71.2774 27.5999C71.619 26.7757 71.7946 25.8922 71.7946 25H82Z" fill="white"/>
</svg>
