<svg width="97" height="29" viewBox="0 0 97 29" fill="none" xmlns="http://www.w3.org/2000/svg">
<path d="M76.0718 0.09762C73.2459 0.421259 71.1225 1.02907 68.9044 2.14207C63.8683 4.66803 60.995 9.45945 61.2634 14.8982C61.5791 21.4499 66.189 26.5649 73.3485 28.3252C76.2376 29.0356 80.1291 29.154 83.1524 28.6252C87.0992 27.9384 90.2093 26.4149 92.6879 23.9363C93.9114 22.7207 94.5902 21.7893 95.2849 20.3842C96.3979 18.1424 96.8557 15.8138 96.6741 13.3115C96.1768 6.38094 91.0144 1.479 82.8603 0.208132C81.4947 -0.00499725 77.5084 -0.0760384 76.0718 0.09762ZM79.9397 7.95177C81.029 8.07018 81.842 8.29909 82.7419 8.73324C85.1179 9.90939 86.294 12.0012 86.1519 14.8034C86.0967 15.9164 85.9625 16.4453 85.5047 17.3846C84.8732 18.6871 83.9575 19.5791 82.584 20.2342C81.4552 20.771 80.8238 20.9052 79.2687 20.9526C77.7373 20.9999 76.9401 20.8815 75.7797 20.4316C73.1433 19.4054 71.5645 16.8716 71.754 13.9588C71.825 12.9326 71.9829 12.309 72.4092 11.4329C72.717 10.8014 72.8828 10.5803 73.4985 9.97254C74.4852 8.98584 75.2903 8.5359 76.6954 8.18069C77.7847 7.90441 78.803 7.83337 79.9397 7.95177Z" fill="white"/>
<path d="M11.3047 0.112667C5.88966 0.602072 2.27439 2.43339 0.750917 5.46454C0.0247041 6.90118 -0.196317 8.95352 0.182576 10.7927C0.829853 13.9265 3.26109 15.9709 7.68151 17.0997C8.02883 17.1866 9.6786 17.5102 11.352 17.8102C14.5648 18.3943 15.4173 18.6153 16.0251 19.0258C16.696 19.4757 16.9013 20.2967 16.4908 20.8729C15.6067 22.1201 10.981 22.2622 6.72639 21.1728C4.83192 20.6913 2.55066 19.7599 0.916683 18.7969C0.585151 18.6074 0.293087 18.4495 0.269406 18.4495C0.237832 18.4495 0.222044 20.0598 0.229938 22.0175L0.253619 25.5933L1.59553 26.2721C4.09781 27.5272 6.43432 28.2297 9.68649 28.6797C10.9416 28.8612 15.2436 28.8849 16.3566 28.727C21.3848 28.0008 24.6844 26.0985 26.1842 23.0673C26.7446 21.9464 26.9025 21.2597 26.9498 19.8546C26.9972 18.5048 26.9025 17.6997 26.5709 16.6735C26.0105 14.9053 24.787 13.5713 22.8294 12.6083C21.0612 11.7321 19.8377 11.4163 15.3857 10.7059C11.352 10.0586 10.8547 9.93233 10.4364 9.43503C10.1601 9.1035 10.1601 8.52727 10.4364 8.20363C10.7995 7.77737 11.6283 7.47741 12.9071 7.31954C13.8859 7.19324 16.6645 7.21692 17.8485 7.35901C20.3271 7.65107 22.9162 8.36939 24.7002 9.26137C24.9922 9.41135 25.2685 9.52975 25.3159 9.52975C25.3711 9.52975 25.3869 8.43254 25.379 6.11182L25.3553 2.70177L24.2502 2.14133C22.1347 1.07569 19.6325 0.412624 16.6723 0.136347C15.8751 0.0653057 12.0467 0.0416241 11.3047 0.112667Z" fill="white"/>
<path d="M28.9473 14.4636V28.0801H33.8413H38.7354V23.115V18.1578L39.4695 18.3315C41.0561 18.7182 41.9559 18.8051 44.2214 18.8051C46.4395 18.8051 47.0947 18.7419 48.7839 18.3709C49.1786 18.2841 49.5338 18.2131 49.5654 18.2131C49.597 18.2131 49.6285 20.4312 49.6285 23.1466V28.0801H54.5226H59.4166V14.4636V0.847092H54.5226H49.6285L49.6128 5.67799L49.5891 10.5168L49.1549 10.6115C47.5999 10.9667 46.5421 11.0614 44.1819 11.0614C41.8218 11.0614 40.764 10.9667 39.209 10.6115L38.7748 10.5168L38.7511 5.67799L38.7354 0.847092H33.8413H28.9473V14.4636Z" fill="white"/>
</svg>
