<svg width="108" height="24" viewBox="0 0 108 24" fill="none" xmlns="http://www.w3.org/2000/svg">
<path d="M0.863636 5.81818V0.727272H21.0909V5.81818H14.0909V24H7.86364V5.81818H0.863636ZM23.4688 0.727272H31.3324L36.7415 13.9091H37.0142L42.4233 0.727272H50.2869V24H44.1051V10.5455H43.9233L38.7415 23.8182H35.0142L29.8324 10.4545H29.6506V24H23.4688V0.727272ZM53.2812 24V0.727272H63.3267C65.054 0.727272 66.5653 1.04167 67.8608 1.67045C69.1563 2.29924 70.1638 3.20455 70.8835 4.38636C71.6032 5.56818 71.9631 6.98485 71.9631 8.63636C71.9631 10.303 71.5919 11.7083 70.8494 12.8523C70.1146 13.9962 69.0805 14.8598 67.7472 15.4432C66.4214 16.0265 64.8722 16.3182 63.0994 16.3182H57.0994V11.4091H61.8267C62.5691 11.4091 63.2017 11.3182 63.7244 11.1364C64.2547 10.947 64.66 10.6477 64.9403 10.2386C65.2282 9.82955 65.3722 9.29545 65.3722 8.63636C65.3722 7.9697 65.2282 7.42803 64.9403 7.01136C64.66 6.58712 64.2547 6.27651 63.7244 6.07954C63.2017 5.875 62.5691 5.77273 61.8267 5.77273H59.5994V24H53.2812ZM66.9176 13.3182L72.7358 24H65.8722L60.1903 13.3182H66.9176ZM80.5653 24L73.7017 0.727272H80.7472L83.929 15.0455H84.1108L87.8835 0.727272H93.429L97.2017 15.0909H97.3835L100.565 0.727272H107.611L100.747 24H94.7017L90.7472 11H90.5653L86.6108 24H80.5653Z" fill="white"/>
</svg>
