<svg width="212" height="18" viewBox="0 0 212 18" fill="none" xmlns="http://www.w3.org/2000/svg">
<path d="M0.422565 1.92569C-0.48964 3.7501 -0.185572 3.95281 3.97003 4.25688L8.53106 4.56095L5.99716 9.93282C4.57817 12.9735 3.46325 15.8115 3.46325 16.3183C3.46325 16.825 5.28766 17.2305 7.5175 17.2305C11.4704 17.2305 11.5717 17.1291 14.5111 10.6423L17.5518 4.05417H22.1128C25.6603 4.05417 26.9779 3.54739 27.7887 2.02704C28.8023 -8.01086e-05 28.5996 -8.01086e-05 15.2206 -8.01086e-05C2.6524 -8.01086e-05 1.43613 0.202633 0.422565 1.92569Z" fill="white"/>
<path d="M31.5385 1.92569C31.1331 3.64874 31.6399 3.95281 35.3901 4.25688L39.7484 4.56095L36.9104 10.845L33.9711 17.2305H38.2281C42.485 17.2305 42.5864 17.2305 45.7284 10.7437L48.9718 4.15552L53.8369 3.85145C57.4857 3.64874 58.8034 3.14196 59.0061 1.72297C59.3101 0.202633 58.1952 -8.01086e-05 45.7284 -8.01086e-05C33.0589 -8.01086e-05 32.0453 0.101276 31.5385 1.92569Z" fill="white"/>
<path d="M68.6351 0.911524C60.4253 3.04 60.0198 7.09425 67.9256 9.5268C72.0812 10.8444 73.3988 11.7566 73.1961 12.9729C72.9934 13.8851 71.7772 14.8987 70.4595 15C68.4324 15.3041 68.1283 15 68.6351 13.277C69.1419 11.3512 68.7365 11.1485 64.1754 11.1485C59.6144 11.1485 59.209 11.3512 59.209 13.6824C59.209 15.7095 59.8171 16.2163 62.8578 16.8244C68.7365 17.9394 79.2775 16.7231 81.5073 14.696C85.0548 11.5539 84.0412 9.62816 77.9599 7.70239C72.4866 5.97933 70.2568 3.04 74.4124 3.04C75.5273 3.04 76.4395 3.44543 76.4395 4.05357C76.4395 4.56035 78.7707 5.06713 81.5073 5.06713C85.2575 5.06713 86.5752 4.6617 86.5752 3.64814C86.5752 2.83729 86.1697 1.92509 85.7643 1.62102C84.0412 0.607454 71.7772 0.100674 68.6351 0.911524Z" fill="white"/>
<path d="M89.5166 8.81791L88.0977 16.7237L93.6722 17.0278C99.0441 17.3318 99.3482 17.2305 102.592 13.4803L106.038 9.62876L105.531 13.3789L104.923 17.2305H110.7H116.579L122.356 9.12198L128.032 1.01348H123.572C119.417 1.01348 118.91 1.31755 115.971 5.67587C114.146 8.20977 112.524 10.1355 112.322 9.93283C112.119 9.62876 112.423 7.9057 112.93 5.97993C114.349 1.01348 114.349 1.01348 109.585 1.01348C105.531 1.01348 104.923 1.41891 101.882 5.57451C100.058 8.10841 98.436 10.1355 98.2333 10.1355C98.1319 10.1355 98.3346 8.41248 98.8414 6.284C99.3482 4.25688 99.7536 2.22976 99.7536 1.72298C99.7536 1.31755 97.7265 1.01348 95.2939 1.01348H90.8343L89.5166 8.81791Z" fill="white"/>
<path d="M131.172 2.53382C131.172 3.64874 132.287 4.05417 135.226 4.05417C137.456 4.05417 139.28 4.25688 139.28 4.56095C139.28 4.76366 138.165 7.60163 136.746 10.7437C135.327 13.8857 134.213 16.6223 134.213 16.825C134.213 17.0278 136.037 17.2305 138.267 17.2305C142.321 17.2305 142.422 17.1291 145.362 10.845C148.301 4.6623 148.402 4.56095 153.166 4.05417C155.7 3.7501 158.031 2.93925 158.335 2.22976C158.639 1.31755 155.497 1.01348 144.956 1.01348C133.402 1.01348 131.172 1.21619 131.172 2.53382Z" fill="white"/>
<path d="M160.362 7.29691C155.801 17.838 155.7 17.2298 160.463 17.2298C164.112 17.2298 164.822 16.8244 166.342 13.8851L168.065 10.6417L168.977 13.8851C169.89 17.0271 170.295 17.2298 174.451 17.2298C179.214 17.2298 179.113 17.5339 177.187 11.6552C176.985 11.0471 178.302 9.72946 180.127 8.61454C182.356 7.19556 183.37 5.77657 183.37 4.05352C183.37 1.51961 183.269 1.51961 173.234 1.21554L163.099 1.01283L160.362 7.29691ZM174.248 4.05352C175.16 5.57386 172.829 8.10776 170.599 8.10776C168.977 8.10776 168.876 7.80369 169.89 5.57386C171.106 2.9386 173.133 2.2291 174.248 4.05352Z" fill="white"/>
<path d="M189.251 3.64666C186.21 6.68735 186.717 7.29548 193.508 9.82939C198.88 11.8565 200.299 14.4918 196.346 14.9986C194.724 15.2013 194.015 14.7958 194.015 13.7823C194.015 12.566 192.9 12.1606 189.555 12.1606C184.386 12.1606 182.663 13.7823 185.501 15.9108C186.92 17.0257 189.758 17.3297 196.244 17.0257C203.745 16.823 205.468 16.4175 207.292 14.4918C210.333 11.4511 209.218 9.52532 203.441 7.90362C198.272 6.48463 195.94 3.03852 199.995 3.03852C201.211 3.03852 202.123 3.5453 202.123 4.15344C202.123 5.57243 211.448 4.86293 211.955 3.44395C212.461 1.82225 208.813 1.0114 199.792 1.0114C192.697 1.0114 191.683 1.21411 189.251 3.64666Z" fill="white"/>
</svg>
