<svg width="121" height="42" viewBox="0 0 121 42" fill="none" xmlns="http://www.w3.org/2000/svg">
<path d="M20.7116 4.13081C19.5016 5.25081 18.5052 6.79081 18.5052 7.56081C18.5052 9.59081 17.8646 9.80081 14.4481 8.89081C10.0352 7.77081 7.82868 8.96081 7.82868 12.3908C7.82868 13.8608 8.3981 16.0308 9.18104 17.2208L10.4622 19.3208L8.3981 20.2308C6.04927 21.2808 3.8428 25.1308 4.48339 26.9508C5.0528 28.2108 9.18104 30.1008 11.5299 30.1008C13.0246 30.1008 13.1669 30.3808 12.9534 33.1808C12.5975 37.4508 13.6652 39.2008 16.7257 39.2008C18.434 39.2008 19.9287 38.5708 21.4946 37.1708L23.7722 35.2108L25.1957 36.8908C26.0499 37.8008 27.9004 38.8508 29.3952 39.2008C31.6728 39.6908 32.171 39.5508 33.0963 38.2908C33.6657 37.4508 34.164 35.2808 34.164 33.4608C34.164 30.2408 34.2352 30.1008 36.1569 30.1008C38.7193 30.1008 42.7052 27.6508 42.7052 26.1108C42.7052 24.0108 40.0004 20.3708 38.1499 19.8808L36.3704 19.4608L37.794 17.5008C39.7157 14.9808 39.8581 10.6408 38.0787 9.38081C36.3704 8.12081 33.5946 8.12081 31.2457 9.38081C29.3952 10.2908 29.324 10.2908 28.8969 8.26081C28.541 6.30081 24.7687 2.10081 23.4875 2.10081C23.2028 2.10081 21.9216 3.01081 20.7116 4.13081ZM30.2493 12.8808C33.8081 15.6108 35.0893 18.4108 34.7334 22.7508C34.164 29.1208 29.8222 33.1108 23.4163 33.1808C16.7969 33.1808 11.601 27.5108 12.2416 20.9308C13.0957 12.1108 23.1316 7.56081 30.2493 12.8808Z" fill="white"/>
<path d="M66.9055 3.50156C66.0514 4.06156 66.0514 4.27156 67.119 5.46156C68.7561 7.21156 68.8984 17.3616 67.2614 17.9216C64.699 18.9016 66.6208 19.6016 72.1014 19.6016C78.792 19.6016 81.1408 18.5516 81.1408 15.6116C81.1408 14.5616 80.5002 13.0916 79.7173 12.2516C78.4361 10.8516 78.3649 10.6416 79.3614 9.80156C80.5002 8.89156 80.7849 6.51156 79.8596 5.04156C78.5784 3.15156 69.3255 1.96156 66.9055 3.50156ZM75.0196 5.81156C76.7278 7.07156 76.2296 9.38156 74.1655 9.66156C72.8131 9.87156 72.5996 9.59156 72.5996 7.42156C72.5996 4.69156 73.0267 4.41156 75.0196 5.81156ZM75.7314 13.0216C77.6531 14.9116 76.799 17.5016 74.3078 17.5016C72.8131 17.5016 72.5996 17.2216 72.5996 14.7016C72.5996 11.6216 73.7384 11.0616 75.7314 13.0216Z" fill="white"/>
<path d="M86.5492 9.80156C85.0545 13.5816 83.4174 17.1516 82.848 17.5716C81.1398 18.9716 81.7092 19.6016 84.6986 19.6016C87.3322 19.6016 88.6133 18.6916 86.6916 18.0616C84.9833 17.5016 86.7627 15.4016 88.9692 15.4016C91.1757 15.4016 92.9551 17.5016 91.2469 18.0616C90.7486 18.2016 90.3927 18.6216 90.3927 18.9716C90.3927 19.3216 93.5957 19.6016 97.5104 19.6016C101.781 19.6016 104.628 19.3216 104.628 18.9016C104.628 18.4816 104.343 18.2016 103.916 18.2016C103.56 18.2016 103.205 17.5716 103.205 16.8016C103.205 15.6816 103.703 15.4016 105.696 15.4016C108.187 15.4016 110.18 17.4316 108.329 18.0616C106.194 18.7616 107.831 19.6016 111.39 19.6016C115.305 19.6016 116.159 19.0416 114.308 17.5716C113.739 17.1516 112.102 13.5816 110.607 9.80156C109.183 5.95156 107.546 2.80156 107.048 2.80156C106.621 2.80156 104.984 5.88156 103.56 9.59156C99.2186 20.7916 98.2933 20.7916 93.9516 10.2216C92.3145 6.16156 90.5351 2.80156 90.108 2.80156C89.6098 2.80156 87.9727 5.95156 86.5492 9.80156ZM106.336 13.1616C104.842 13.5116 104.628 13.1616 105.126 11.2716L105.553 9.66156L106.479 11.2716C107.262 12.6716 107.19 13.0216 106.336 13.1616ZM89.9657 11.6216C90.6063 13.2316 90.5351 13.3016 89.0404 13.3016C88.0439 13.3016 87.7592 12.9516 88.0439 11.9016C88.471 10.2216 89.3963 10.0816 89.9657 11.6216Z" fill="white"/>
<path d="M46.9766 3.85068C46.9766 4.06068 47.6172 4.83068 48.4001 5.60068C49.5389 6.72068 49.8236 7.91068 49.8236 12.2507C49.8236 17.4307 49.8236 17.5707 52.1724 18.9007C54.7348 20.4407 56.5142 20.6507 59.5748 19.6007C62.4219 18.6207 63.3472 16.3807 63.3472 10.4307C63.3472 6.72068 63.6319 5.46068 64.4148 5.18068C66.5501 4.34068 65.4113 3.50068 62.2795 3.50068C59.1477 3.50068 58.0089 4.34068 60.1442 5.18068C60.9272 5.46068 61.2119 6.72068 61.2119 10.0807C61.2119 12.5307 60.9983 15.1207 60.7848 15.7507C60.2154 17.1507 57.3683 18.3407 55.9448 17.7807C54.5213 17.2207 53.3824 13.7207 53.3824 9.73068C53.3824 7.07068 53.6672 6.09068 54.806 5.46068C57.226 3.99068 56.443 3.50068 51.603 3.50068C49.0407 3.50068 46.9766 3.64068 46.9766 3.85068Z" fill="white"/>
<path d="M47.6876 22.68C47.6876 23.24 48.1858 23.8 48.7552 24.08C49.6094 24.36 49.8229 25.76 49.8229 30.38C49.8229 34.93 49.6094 36.33 48.7552 36.68C46.3352 37.59 47.9011 38.5 51.9582 38.5C56.0152 38.5 57.5811 37.59 55.1611 36.68C54.4494 36.4 54.0935 35.28 54.0935 33.53V30.8H57.2964H60.4994V33.6C60.4994 35.49 60.1435 36.61 59.4317 36.82C57.0829 37.73 58.5776 38.5 62.6347 38.5C66.6917 38.5 68.2576 37.59 65.8376 36.68C64.9835 36.33 64.7699 34.93 64.7699 30.38C64.7699 25.76 64.9835 24.36 65.8376 24.08C66.407 23.8 66.9052 23.24 66.9052 22.68C66.9052 21.98 65.8376 21.7 62.6347 21.7C59.4317 21.7 58.3641 21.98 58.3641 22.68C58.3641 23.24 58.8623 23.8 59.4317 24.08C60.0723 24.29 60.4994 25.34 60.4994 26.6C60.4994 28.63 60.357 28.7 57.2964 28.7C54.2358 28.7 54.0935 28.63 54.0935 26.6C54.0935 25.34 54.5205 24.29 55.1611 24.08C55.7305 23.8 56.2288 23.24 56.2288 22.68C56.2288 21.98 55.1611 21.7 51.9582 21.7C48.7552 21.7 47.6876 21.98 47.6876 22.68Z" fill="white"/>
<path d="M72.1726 28.7C70.7491 32.55 69.0409 36.05 68.5426 36.47C66.9056 37.87 67.5462 38.5 70.4644 38.5C73.3826 38.5 73.952 38.01 72.5285 36.61C71.3185 35.42 72.4573 34.3 74.8062 34.3C76.9415 34.3 78.6497 36.4 77.0126 36.96C74.8062 37.66 76.5856 38.5 80.4291 38.5C84.415 38.5 85.9809 37.73 83.7032 36.89C83.205 36.68 81.4256 33.18 79.7173 29.12C78.0803 25.06 76.3009 21.7 75.8026 21.7C75.3044 21.7 73.6673 24.85 72.1726 28.7ZM75.7315 30.52C76.372 32.13 76.3009 32.2 74.8062 32.2C73.8097 32.2 73.525 31.85 73.8097 30.8C74.2368 29.12 75.162 28.98 75.7315 30.52Z" fill="white"/>
<path d="M83.9883 22.7513C83.9883 23.3113 84.4153 23.8013 84.9848 23.8013C86.4083 23.8013 86.8353 25.4113 86.8353 30.5213C86.8353 33.0413 87.12 35.7013 87.5471 36.4013C89.3977 39.8313 97.8677 39.6213 99.5048 36.0513C100.003 35.0713 100.359 32.0613 100.359 29.3313C100.359 25.6213 100.644 24.3613 101.427 24.0813C101.996 23.8013 102.494 23.2413 102.494 22.6813C102.494 21.9813 101.569 21.7013 99.2912 21.7013C97.0136 21.7013 96.0883 21.9813 96.0883 22.6813C96.0883 23.2413 96.5865 23.8013 97.1559 24.0813C98.5083 24.5713 98.6506 33.4613 97.3695 35.1413C95.9459 36.7513 94.2377 37.1013 92.6718 35.9813C90.1095 34.2313 89.6824 23.8013 92.2448 23.8013C92.8142 23.8013 93.2412 23.3113 93.2412 22.7513C93.2412 21.9113 92.2448 21.7013 88.6148 21.7013C84.9848 21.7013 83.9883 21.9113 83.9883 22.7513Z" fill="white"/>
<path d="M105.483 23.241C102.494 26.391 103.917 29.751 109.327 32.411C111.96 33.741 112.743 35.281 111.391 36.401C109.896 37.591 107.69 36.611 106.622 34.301C105.27 31.151 103.917 31.641 103.917 35.211C103.917 38.501 103.633 38.361 111.32 38.641C113.882 38.711 116.017 36.401 116.017 33.601C116.017 31.431 114.807 30.171 110.466 28.071C108.401 27.021 107.476 26.181 107.619 25.341C107.974 23.451 110.181 23.521 111.96 25.481C114.238 27.861 114.594 27.791 114.594 24.921C114.594 23.101 114.309 22.471 113.384 22.471C112.672 22.401 110.964 22.261 109.611 21.981C107.547 21.631 106.836 21.911 105.483 23.241Z" fill="white"/>
</svg>
