<svg width="81" height="32" viewBox="0 0 81 32" fill="none" xmlns="http://www.w3.org/2000/svg">
<path d="M79.4348 0.233984C79.2569 0.394024 78.9724 0.527391 78.6968 0.58963C78.3856 0.651869 76.1717 0.687433 71.8417 0.687433C66.1514 0.687433 65.4401 0.705215 65.3156 0.829691C65.1289 1.01641 65.1378 1.15866 65.3778 1.60322L65.5734 1.97665L65.6001 11.7747L65.6179 21.5817L72.2685 21.6172C78.9991 21.6528 79.4436 21.6617 79.2392 21.7328C79.088 21.7862 79.7904 22.293 80.0127 22.293C80.2616 22.293 80.4306 22.0085 80.7062 21.1638C80.9107 20.5414 80.9285 20.4169 80.8218 20.2925C80.6795 20.1235 80.5373 20.1413 79.6215 20.4347C79.008 20.6303 78.9191 20.6392 73.6377 20.6748C68.8454 20.7014 68.2497 20.6926 68.0541 20.5592L67.8407 20.4258V11.1079C67.8407 3.97717 67.8673 1.76326 67.9474 1.68324C68.0807 1.54988 77.9588 1.53209 78.8568 1.66546C79.1769 1.70992 79.7015 1.83439 80.0305 1.94109C80.5284 2.10113 80.6617 2.11891 80.7684 2.02111C80.964 1.86996 80.9463 1.73659 80.6173 0.820801C80.3328 0.0294857 80.3239 0.0205956 80.0216 0.00281334C79.7815 -0.0149689 79.6481 0.0383778 79.4348 0.233984Z" fill="white"/>
<path d="M0.0355299 0.813078C-0.0711641 1.0976 0.0533122 1.24874 0.533435 1.391C1.15582 1.58661 1.31586 1.67552 1.90267 2.15564C2.16941 2.36903 2.40947 2.52018 2.45393 2.48462C2.48949 2.44905 2.48949 2.47573 2.45393 2.53796C2.41836 2.6002 2.4806 2.76024 2.62286 2.92918C3.10298 3.49821 3.57421 4.67185 6.58832 12.8695C8.85557 19.0133 9.73579 21.3161 9.87805 21.4317C10.2693 21.7518 10.4115 21.6184 10.7672 20.6048C14.0302 11.3402 16.9376 3.26704 17.1866 2.76913C17.3555 2.43127 17.6845 1.92447 17.9068 1.64885C18.3602 1.0887 18.378 1.03536 18.1735 0.83086C18.0668 0.724167 17.8356 0.688601 17.1599 0.688601C15.9774 0.688601 15.8529 0.813078 16.1463 1.65774C16.2352 1.92447 16.2619 2.17343 16.2175 2.41349C16.1641 2.76024 11.2473 16.5327 11.0072 17.0217C10.8205 17.3951 10.616 17.484 10.4115 17.2706C10.2782 17.1284 7.03288 8.91293 5.77033 5.50762C4.77452 2.81359 3.40528 1.40879 1.26251 0.857534C0.462306 0.653036 0.097768 0.644146 0.0355299 0.813078Z" fill="white"/>
<path d="M25.9797 0.925896C25.9352 1.06815 25.6507 1.86836 25.3484 2.71302C25.0461 3.55768 24.8327 4.30454 24.8594 4.35789C24.8949 4.42012 24.886 4.43791 24.8505 4.39345C24.806 4.35789 23.6057 7.62984 22.1742 11.6575C20.7517 15.6852 19.4358 19.2595 19.249 19.6151C19.0623 19.9619 18.76 20.4242 18.5733 20.6376C18.3777 20.851 18.2266 21.1088 18.2266 21.1978C18.2266 21.5178 18.4044 21.5801 19.3468 21.5801C20.4049 21.5801 20.5205 21.5178 20.396 20.9755C20.3604 20.7977 20.3249 20.362 20.3338 20.0241C20.3338 19.3929 20.7428 18.2192 25.4462 5.28257C25.5618 4.98027 25.8196 4.82912 26.033 4.9447C26.1219 4.99805 26.5131 5.87827 27.0288 7.21195C27.5089 8.4656 27.9179 9.39918 27.9802 9.39918C28.0424 9.39918 28.0958 9.44363 28.0958 9.49698C28.0958 9.54144 28.0513 9.55922 27.9891 9.52365C27.9268 9.4792 27.909 9.50587 27.9357 9.58589C27.9624 9.65702 28.6114 11.3108 29.3672 13.2668C30.1229 15.2229 30.8698 17.1256 31.021 17.4901C31.6256 18.9038 32.568 20.0864 33.6172 20.7443C34.1506 21.0822 35.1553 21.4467 35.351 21.3667C35.4221 21.34 35.4665 21.3489 35.4399 21.3934C35.4043 21.4378 35.591 21.5001 35.84 21.5356C36.2045 21.589 36.3201 21.5712 36.4357 21.4556C36.6491 21.2422 36.489 21.0466 35.9555 20.8688C34.853 20.5131 33.9817 19.6952 33.3238 18.4148C33.1015 17.9792 32.1679 15.5785 31.2521 13.089C30.3363 10.5906 29.3405 7.8699 29.0293 7.04302C28.7181 6.20725 28.1046 4.52682 27.6601 3.30873C27.0644 1.69053 26.7888 1.03259 26.6198 0.881439C26.3175 0.614704 26.0864 0.632486 25.9797 0.925896Z" fill="white"/>
<path d="M38.6058 0.795866C38.4546 0.947016 38.4724 1.22264 38.6769 1.62274C38.8547 1.9695 38.8547 2.14732 38.8547 11.7765V21.5834H45.2386C49.2663 21.5834 51.7647 21.619 52.0136 21.6812C52.2359 21.7257 52.5649 21.8857 52.7427 22.0369C53.0895 22.3125 53.4362 22.3747 53.5963 22.1791C53.6496 22.1169 53.8185 21.7168 53.9697 21.29C54.352 20.2142 54.2009 19.9652 53.3829 20.3031C52.556 20.6498 51.8803 20.6854 46.6078 20.6943C43.2558 20.6943 41.4509 20.6587 41.3353 20.6054C41.1664 20.5165 41.1664 20.312 41.1664 11.243C41.1664 2.14732 41.1664 1.96061 41.3442 1.62274C41.5487 1.22264 41.5665 0.947016 41.4154 0.795866C41.3442 0.724735 40.8997 0.689171 40.0106 0.689171C39.1214 0.689171 38.6769 0.724735 38.6058 0.795866Z" fill="white"/>
<path d="M56.5912 0.947138C55.791 1.17831 54.9641 1.64954 54.4129 2.20079C53.8349 2.77872 53.5237 3.28551 53.257 4.06794C53.0881 4.56584 53.0703 4.77923 53.097 5.62389C53.1503 6.73529 53.3815 7.48214 53.9416 8.3357C54.1195 8.60243 55.7643 10.3451 57.6048 12.2211C61.5169 16.1955 61.5703 16.2666 61.5703 17.5736C61.5703 18.5605 61.3124 19.1296 60.5478 19.832C59.7031 20.6144 58.485 20.9434 57.3647 20.7033C56.8224 20.5877 56.6534 20.6411 56.5823 20.9256C56.4667 21.3701 56.8313 21.5035 58.1027 21.5035C59.0985 21.5124 59.7387 21.3701 60.61 20.9523C62.2193 20.1876 63.2151 18.605 63.2151 16.8268C63.2151 16.0088 63.0373 15.3153 62.575 14.3817C62.2282 13.6615 62.0859 13.5104 59.8098 11.2075C57.4448 8.82471 57.4003 8.78026 57.2225 8.9403C57.0358 9.09145 57.0358 9.09145 57.1869 8.90473C57.3381 8.72691 57.3292 8.71802 57.0091 8.39793C56.8224 8.21122 56.6357 8.09564 56.5823 8.1312C56.5379 8.17566 56.529 8.16676 56.5734 8.12231C56.609 8.06896 56.4934 7.88225 56.3067 7.69553C55.9955 7.37545 55.9688 7.36656 55.7999 7.50882C55.6221 7.65997 55.6221 7.65997 55.7643 7.49993C55.9066 7.33989 55.8888 7.30432 55.4709 6.78863C54.8485 6.02399 54.6529 5.45496 54.6974 4.55695C54.7596 3.49001 55.1864 2.73426 56.1022 2.12077C56.8046 1.65843 57.6048 1.44504 58.4317 1.51617C58.7873 1.55174 59.1696 1.59619 59.2763 1.63176C59.4186 1.66732 59.4986 1.63176 59.6142 1.46283C59.8098 1.16942 59.6764 0.911573 59.2941 0.831553C58.734 0.724857 57.1336 0.787096 56.5912 0.947138ZM60.1921 11.6877C60.1921 11.7321 60.1477 11.821 60.1032 11.8922C60.041 11.9989 59.9965 11.9989 59.9076 11.9099C59.8187 11.821 59.8187 11.7766 59.9254 11.7143C60.0854 11.6076 60.1921 11.5988 60.1921 11.6877ZM62.7706 18.2405C62.7706 18.3116 62.735 18.4005 62.6816 18.4272C62.6372 18.4538 62.5927 18.4005 62.5927 18.3027C62.5927 18.196 62.6372 18.116 62.6816 18.116C62.735 18.116 62.7706 18.1693 62.7706 18.2405Z" fill="white"/>
<path d="M24.9292 14.8517C24.3158 15.4119 24.4758 16.3455 25.2227 16.6655C25.6939 16.8611 26.1207 16.7633 26.4763 16.381C26.7164 16.1232 26.7608 16.0076 26.7608 15.6431C26.7608 14.9584 26.3341 14.5583 25.605 14.5583C25.3205 14.5583 25.1782 14.6206 24.9292 14.8517Z" fill="white"/>
<path d="M73.7808 14.7021C73.274 14.9688 73.0962 15.8312 73.4519 16.2847C73.9764 16.9515 74.8833 16.9249 75.3101 16.2225C75.7725 15.4756 75.239 14.5509 74.3588 14.5598C74.172 14.5687 73.9142 14.622 73.7808 14.7021Z" fill="white"/>
<path d="M46.5453 27.1744C45.5228 27.4412 44.8115 28.4103 44.8115 29.5395C44.8115 29.7884 44.8738 30.1797 44.9538 30.4108C45.1316 30.9265 45.7184 31.6022 46.1897 31.8156C46.6075 32.0112 47.3455 32.029 47.8612 31.8779C48.2257 31.7712 48.9904 31.131 48.9904 30.9354C48.9904 30.8376 48.4658 30.5175 48.4124 30.5798C48.4036 30.5975 48.3413 30.6953 48.288 30.802C48.0212 31.3088 46.9098 31.5311 46.3497 31.1844C45.5939 30.7309 45.2828 29.5039 45.7006 28.6504C45.914 28.2058 46.3675 27.8413 46.8209 27.7524C47.2477 27.6723 47.8345 27.8768 48.1546 28.2236C48.4391 28.5259 48.4391 28.5259 48.6703 28.3836C48.9548 28.1969 48.9548 28.1525 48.6703 27.8057C48.2168 27.2722 47.2566 26.9877 46.5453 27.1744Z" fill="white"/>
<path d="M31.8271 29.5846V31.9852H32.1828H32.5384V30.1981V28.411L33.9255 30.1803C35.268 31.8874 35.3303 31.9408 35.6592 31.9675L36.006 31.9941V29.5935V27.184H35.6504H35.2947L35.2769 28.9623L35.2502 30.7405L33.8721 28.9623C32.5207 27.2196 32.4851 27.1929 32.165 27.184H31.8271V29.5846Z" fill="white"/>
<path d="M38.5879 27.2384C38.5879 27.2651 38.988 27.9586 39.477 28.7766L40.3661 30.2526V31.1239V31.9863H40.6773H40.9885V31.1506V30.3059L41.8865 28.8122C42.3844 27.9942 42.8023 27.2918 42.829 27.2473C42.8468 27.2118 42.6956 27.1851 42.4822 27.1851H42.0999L41.3975 28.3854L40.6951 29.5946L40.4995 29.2567C39.1836 26.9984 39.3259 27.1851 38.9435 27.1851C38.7479 27.1851 38.5879 27.2118 38.5879 27.2384Z" fill="white"/>
</svg>
